<?xml version="1.0" encoding="UTF-8" standalone="no"?>
<!-- Created with Inkscape (http://www.inkscape.org/) -->

<svg
   width="300mm"
   height="300mm"
   viewBox="0 0 300 300"
   version="1.1"
   id="svg1"
   inkscape:version="1.4.3 (0d15f75, 2025-12-25)"
   sodipodi:docname="web_logo_favicon.svg"
   xmlns:inkscape="http://www.inkscape.org/namespaces/inkscape"
   xmlns:sodipodi="http://sodipodi.sourceforge.net/DTD/sodipodi-0.dtd"
   xmlns="http://www.w3.org/2000/svg"
   xmlns:svg="http://www.w3.org/2000/svg">
  <sodipodi:namedview
     id="namedview1"
     pagecolor="#ffffff"
     bordercolor="#000000"
     borderopacity="0.25"
     inkscape:showpageshadow="2"
     inkscape:pageopacity="0.0"
     inkscape:pagecheckerboard="0"
     inkscape:deskcolor="#d1d1d1"
     inkscape:document-units="mm"
     inkscape:zoom="0.59108095"
     inkscape:cx="248.6969"
     inkscape:cy="442.40979"
     inkscape:window-width="3840"
     inkscape:window-height="1529"
     inkscape:window-x="-8"
     inkscape:window-y="-8"
     inkscape:window-maximized="1"
     inkscape:current-layer="layer1" />
  <defs
     id="defs1" />
  <g
     inkscape:label="Vrstva 1"
     inkscape:groupmode="layer"
     id="layer1">
    <rect
       class="st2"
       x="-1.7763568e-15"
       y="-8.8817842e-16"
       width="300"
       height="300"
       id="rect1"
       style="fill:#124551;stroke-width:1.60972"
       ry="74.753578" />
    <g
       id="g3"
       transform="matrix(0.26458333,0,0,0.26458333,-99.632889,-10.389833)">
      <path
         class="st1"
         d="m 934.22,103.53 c 0.6,0.93 5.58,1.02 7.51,4.08 13.83,21.81 6.63,29.35 9.34,51.91 0.8,6.65 12.05,56.91 13.75,59.46 2.39,3.61 20.41,6.66 21.53,20.82 0.67,8.47 -8.88,44.26 -12.58,54.04 -9.05,23.93 -39.2,45.56 -36.44,69.81 1,8.81 8.4,15.35 9.23,26.85 3.43,47.58 -25.23,39.71 -59.5,50.1 -21.88,-3.4 -28.17,-27.65 -45.96,-33.58 -4.15,-1.38 -15.69,-4.38 -14.58,3.45 7.08,-0.25 10.8,4.95 15.67,8.74 7.06,5.49 34.46,28.6 40.73,30.27 16.06,4.28 43.25,-10.14 57.95,1.9 11.04,9.04 17.49,62.2 49.2,61.68 1.79,2.48 1.16,22.89 0.37,28.15 -2.49,16.35 -18.14,40.19 -25.86,53.95 -12.24,21.81 1.47,38.71 3.33,60.72 -13.46,17.6 -26.74,36.14 -38.7,54.73 -5.48,8.52 -8.99,23.02 -13.8,29.5 -8.42,11.36 -25.31,13.7 -30.33,37.24 -6.16,28.89 10.42,36.67 12.63,56.52 2.01,17.97 1.74,102.17 -4.72,114.54 l -34.34,17.68 c -2.64,11.17 -27.17,27.79 -27.64,36.6 -0.11,2.11 4.75,8.46 11.18,2.29 4.86,-4.67 11.17,-16.29 16.73,-20.71 6.73,-5.33 17.8,-15.16 21.95,-18.18 3.46,-2.51 10.67,-0.72 14.45,-5.41 6.08,-7.53 13.38,-45.56 17.57,-57.92 2.16,-6.37 8.8,-10.98 10.29,-16.33 3.75,-13.43 -0.84,-58.65 -3.52,-74.52 -2.02,-11.95 -22.26,-19.65 -11.38,-37.98 10.42,-5.21 28.23,-13.15 35.63,-22.01 7.02,-8.41 8.06,-25.57 18.22,-39.44 7.43,-10.14 28.12,-26.5 32.04,-32.23 1.27,-1.86 11.15,-35.64 13.08,-42.41 9.29,-32.53 -4.41,-69.22 44.75,-53.65 5.87,13.92 7.1,29.38 11.82,43.66 2.93,8.87 13.18,20.94 13.65,28.67 1.72,28.14 -20.54,60.29 -15.58,97.47 3.58,26.85 24.52,41.64 29.76,58.93 5.82,19.25 3.69,44.69 6.53,64.44 2.38,16.53 15.94,35.45 16.66,45.7 0.88,12.56 -11.23,30.59 -13.06,44.4 -3.08,23.2 2.6,45.45 4.47,68.27 l 13.05,0.22 -0.14,66.43 c -27.54,0.87 -58.93,8.51 -86.27,4.38 -7.33,-1.11 -12.63,-6.12 -19.03,-7.58 -46.4,-10.59 -84.28,-7.89 -131.57,-0.79 -30.56,4.58 -57.22,21.09 -88.52,17.61 -11.76,-18.39 -9.68,-52.54 -1.66,-72.3 13.58,-33.45 32.55,-48.38 34.59,-89.61 0.6,-12.22 -4.45,-28.14 -3.63,-35.11 0.76,-6.43 8.16,-12.02 8.2,-22.75 0.03,-9.1 -5.54,-18.17 -9.93,-25.88 -14.76,-25.93 -26.79,-25.4 -33.8,-63.81 -5.58,-30.56 8.22,-25.87 23.1,-41.49 16.76,-17.6 9.07,-30.14 11.78,-50.31 1.99,-14.76 11.12,-28.86 12.81,-40.41 1.24,-8.47 4.74,-37.1 4.45,-43.88 -0.96,-22.97 -33.97,-48.71 -35.2,-80.6 -0.54,-13.97 9.17,-38.58 8.51,-52.39 -2.68,-56.24 -29,-94.12 -26.24,-155.71 1.54,-34.3 -21.8,-29.81 -26.12,-54.16 -1.29,-7.28 4.12,-16.57 4.17,-25.65 0.06,-10.7 -5.27,-20.29 -5.27,-31.04 0.01,-24.61 11.19,-25.02 -3.23,-54.02 -9.11,-18.32 -24.81,-31.53 -27.41,-54.62 3.26,-2.78 66.85,13.1 81.78,12.48 6.17,-0.26 29.29,-3.71 33.58,-5.82 10.37,-5.08 32.31,-29.12 43.14,-32.25 6.49,-1.87 38.02,-6.73 43.03,-5.24 l 4.8,4.18 c 1.19,2.07 -2.05,6.37 -1.03,7.96 z"
         id="path2"
         style="fill:#edb84f" />
      <path
         class="st1"
         d="m 1154.35,166.98 c 13.37,29.04 9.95,63.06 13.52,94.76 -0.47,13.77 -13.43,19.9 -19.56,29.22 -16.02,24.39 -19.47,55.8 -27.71,83.18 -2.36,7.85 -9.05,13.95 -10.22,20.99 -4.07,24.41 20.38,45.71 22.13,66.83 1.56,18.82 -11.47,43.75 0.27,66.01 -7.25,14.18 -22.83,44.54 -26.03,58.59 -3,13.16 3.46,21.63 2.6,29.59 -0.98,9.1 -14.71,23.24 -15.76,32.31 -1,8.67 10.56,27.93 12.09,39.53 2.12,16.15 0.02,36.14 0.25,53.05 0.13,9.56 6.23,17.57 -0.18,28.54 -17.28,4.68 -33.13,-13.27 -34.05,-29.33 -1.76,-30.58 15.09,-59.55 16.31,-88.46 0.52,-12.47 -7.65,-32.48 -5.12,-47.47 -1.34,-15.69 -25.92,-20.17 -29.4,-32.7 -2.23,-8.04 0.51,-16.78 -1.66,-24.96 -2.46,-9.26 -18.99,-29.73 -23.6,-42.93 -3.16,-9.05 -3.03,-28.44 -7.67,-34.48 -4.71,-6.12 -29.95,-13.55 -34.08,-26.06 6.35,-14.77 21.28,-28.56 12.44,-45.51 l -21.55,-7.16 c 5.22,-9.21 17.06,-7.73 23.3,-11.31 8.34,-4.8 20.71,-27.34 26.42,-36.62 7.21,-11.73 14.62,-27.05 21.87,-40.13 3.05,-5.5 9.94,-9 11.78,-14.8 7.54,-23.79 -0.31,-51.14 0.44,-74.59 0.81,-25.2 26.05,-16.67 41.65,-20.84 11.62,-3.1 38.78,-34.27 51.52,-25.27 z"
         id="path3"
         style="fill:#edb84f" />
    </g>
  </g>
</svg>
