<?xml version="1.0" encoding="UTF-8" standalone="no"?>
<!-- Created with Inkscape (http://www.inkscape.org/) -->

<svg
   width="1000mm"
   height="1000mm"
   viewBox="0 0 1000 1000"
   version="1.1"
   id="svg1"
   xml:space="preserve"
   inkscape:version="1.4.3 (0d15f75, 2025-12-25)"
   sodipodi:docname="logo_text_zlata_fade.svg"
   xmlns:inkscape="http://www.inkscape.org/namespaces/inkscape"
   xmlns:sodipodi="http://sodipodi.sourceforge.net/DTD/sodipodi-0.dtd"
   xmlns:xlink="http://www.w3.org/1999/xlink"
   xmlns="http://www.w3.org/2000/svg"
   xmlns:svg="http://www.w3.org/2000/svg"><sodipodi:namedview
     id="namedview1"
     pagecolor="#ffffff"
     bordercolor="#000000"
     borderopacity="0.25"
     inkscape:showpageshadow="2"
     inkscape:pageopacity="0.0"
     inkscape:pagecheckerboard="0"
     inkscape:deskcolor="#d1d1d1"
     inkscape:document-units="mm"
     inkscape:zoom="0.29554048"
     inkscape:cx="1025.2403"
     inkscape:cy="2172.2912"
     inkscape:window-width="2099"
     inkscape:window-height="1520"
     inkscape:window-x="10"
     inkscape:window-y="0"
     inkscape:window-maximized="1"
     inkscape:current-layer="layer2"
     showgrid="false" /><defs
     id="defs1"><linearGradient
       id="linearGradient74"
       inkscape:collect="always"><stop
         style="stop-color:#eeb84e;stop-opacity:0.359447;"
         offset="0"
         id="stop74" /><stop
         style="stop-color:#eeb84e;stop-opacity:0.10138249;"
         offset="1"
         id="stop75" /></linearGradient><linearGradient
       id="linearGradient72"
       inkscape:collect="always"><stop
         style="stop-color:#eeb84e;stop-opacity:1;"
         offset="0"
         id="stop72" /><stop
         style="stop-color:#eeb84e;stop-opacity:0.66820276;"
         offset="0.03601108"
         id="stop76" /><stop
         style="stop-color:#eeb84e;stop-opacity:0.1;"
         offset="1"
         id="stop73" /></linearGradient><filter
       style="color-interpolation-filters:sRGB;"
       inkscape:label="Drop Shadow"
       id="filter13"
       x="-0.0098095436"
       y="-0.056814855"
       width="1.0196191"
       height="1.1136297"><feFlood
         result="flood"
         in="SourceGraphic"
         flood-opacity="0.498039"
         flood-color="rgb(0,0,0)"
         id="feFlood12" /><feGaussianBlur
         result="blur"
         in="SourceGraphic"
         stdDeviation="3.000000"
         id="feGaussianBlur12" /><feOffset
         result="offset"
         in="blur"
         dx="0.000000"
         dy="0.000000"
         id="feOffset12" /><feComposite
         result="comp1"
         operator="in"
         in="flood"
         in2="offset"
         id="feComposite12" /><feComposite
         result="comp2"
         operator="over"
         in="SourceGraphic"
         in2="comp1"
         id="feComposite13" /></filter><filter
       style="color-interpolation-filters:sRGB;"
       inkscape:label="Drop Shadow"
       id="filter15"
       x="-0.0100461"
       y="-0.15261184"
       width="1.0200922"
       height="1.3052237"><feFlood
         result="flood"
         in="SourceGraphic"
         flood-opacity="0.498039"
         flood-color="rgb(0,0,0)"
         id="feFlood13" /><feGaussianBlur
         result="blur"
         in="SourceGraphic"
         stdDeviation="3.000000"
         id="feGaussianBlur13" /><feOffset
         result="offset"
         in="blur"
         dx="0.000000"
         dy="0.000000"
         id="feOffset13" /><feComposite
         result="comp1"
         operator="in"
         in="flood"
         in2="offset"
         id="feComposite14" /><feComposite
         result="comp2"
         operator="over"
         in="SourceGraphic"
         in2="comp1"
         id="feComposite15" /></filter><filter
       style="color-interpolation-filters:sRGB;"
       inkscape:label="Drop Shadow"
       id="filter20"
       x="-0.092128231"
       y="-0.02334441"
       width="1.1842565"
       height="1.0466888"><feFlood
         result="flood"
         in="SourceGraphic"
         flood-opacity="0.498039"
         flood-color="rgb(0,0,0)"
         id="feFlood19" /><feGaussianBlur
         result="blur"
         in="SourceGraphic"
         stdDeviation="3.000000"
         id="feGaussianBlur19" /><feOffset
         result="offset"
         in="blur"
         dx="0.000000"
         dy="0.000000"
         id="feOffset19" /><feComposite
         result="comp1"
         operator="in"
         in="flood"
         in2="offset"
         id="feComposite19" /><feComposite
         result="comp2"
         operator="over"
         in="SourceGraphic"
         in2="comp1"
         id="feComposite20" /></filter><filter
       style="color-interpolation-filters:sRGB;"
       inkscape:label="Drop Shadow"
       id="filter22"
       x="-0.063663357"
       y="-0.013946842"
       width="1.1273267"
       height="1.0278937"><feFlood
         result="flood"
         in="SourceGraphic"
         flood-opacity="0.498039"
         flood-color="rgb(0,0,0)"
         id="feFlood20" /><feGaussianBlur
         result="blur"
         in="SourceGraphic"
         stdDeviation="3.000000"
         id="feGaussianBlur20" /><feOffset
         result="offset"
         in="blur"
         dx="0.000000"
         dy="0.000000"
         id="feOffset20" /><feComposite
         result="comp1"
         operator="in"
         in="flood"
         in2="offset"
         id="feComposite21" /><feComposite
         result="comp2"
         operator="over"
         in="SourceGraphic"
         in2="comp1"
         id="feComposite22" /></filter><linearGradient
       inkscape:collect="always"
       xlink:href="#linearGradient72"
       id="linearGradient73"
       x1="526.427"
       y1="401.58148"
       x2="526.427"
       y2="274.08661"
       gradientUnits="userSpaceOnUse"
       spreadMethod="pad" /><linearGradient
       inkscape:collect="always"
       xlink:href="#linearGradient74"
       id="linearGradient75"
       x1="516.4422"
       y1="721.16229"
       x2="516.4422"
       y2="813.71417"
       gradientUnits="userSpaceOnUse" /></defs><g
     inkscape:groupmode="layer"
     id="layer2"
     inkscape:label="Vrstva 2"><path
       style="fill:url(#linearGradient73);fill-opacity:1;stroke:none;stroke-width:0.461949;filter:url(#filter22)"
       d="m 471.87021,80.027416 c 3.1e-4,-0.605989 1.81136,-0.154912 1.81136,-0.154912 0,0 0.65127,4.226587 1.13531,6.307214 1.97646,8.495739 8.20077,13.724719 7.20786,25.155582 -0.40751,4.69154 16.25979,7.22516 7.04601,30.03381 -1.30745,3.23657 -1.77994,8.49156 -1.35026,12.16725 0.22595,1.93299 6.28239,9.1751 7.7257,14.01349 3.29976,11.0617 -8.02212,16.02038 1.01595,36.8879 0.66795,1.54219 -0.1278,4.82436 -0.81257,8.84338 -0.77726,4.56168 -0.56137,12.51406 0.25996,19.34063 0.5318,4.42023 8.42758,9.92216 8.42758,9.92216 0,0 2.56239,8.1797 7.46886,8.17641 0.40856,-2.8e-4 -1.4034,-11.62117 3.33393,-22.48155 4.50752,-10.33346 15.87913,-19.43893 16.10328,-20.10532 0.19388,-0.57612 0.67349,-6.54519 0.67349,-6.54519 0,0 2.79221,-2.61601 3.06534,-3.31577 0.2991,-0.76596 0.0671,-10.73567 1.20515,-15.64822 0.91703,-3.95876 4.00512,-9.43226 4.00512,-9.43226 l 1.38159,-9.03887 0.35722,7.89577 c -1.49312,6.98049 -4.26619,9.56501 -4.17676,13.32174 0,0 -0.6046,2.22573 0.0656,13.905 0.03,0.50539 -4.2263,1.08964 -4.88436,9.58311 -0.0557,0.71809 -5.21443,5.36405 -9.10481,10.99558 -4.02406,5.82495 -5.58341,8.00379 -6.78324,12.62926 -0.78632,3.03156 1.3865,2.0566 -0.52891,7.63622 -1.23485,3.59713 2.10213,1.42774 -0.12124,9.63196 -1.97097,7.27219 5.73842,17.60161 5.46066,26.67265 -0.19389,6.338 -3.94474,13.42049 -5.24158,17.48873 -1.00454,3.15132 -1.42283,12.91158 -2.48684,20.67062 -0.24199,1.76325 10.02429,18.38155 2.50358,51.77388 -0.50751,2.25353 1.34572,6.28644 -0.81502,7.10322 -1.46622,0.5542 -2.28831,7.66349 -2.35563,10.51753 -0.0251,1.06646 3.38763,-5.075 0.12975,5.71937 -0.9278,3.07407 0.27756,10.57964 1.24482,15.20565 0.23247,1.11135 1.86662,1.22387 3.03946,4.28287 2.46785,-0.78331 6.72343,-3.81496 8.11462,-7.01461 0.88158,-2.02758 -0.34226,-1.27899 1.53942,-5.46006 0.79337,-1.76286 4.3731,-8.64325 7.06991,-14.91942 0.13928,-0.32465 6.19668,-5.78797 6.99803,-7.47648 0.54262,-1.14328 -0.254,-10.789 1.13791,-15.32087 2.20023,-7.1628 9.954,-16.50583 10.75945,-17.31699 0.74248,-0.74779 6.37052,-2.25935 6.37052,-2.25935 0,0 7.45793,-6.69537 9.36664,-9.76742 1.62813,-2.62042 5.40594,-14.1776 7.07837,-16.89426 0.98741,-1.60394 6.31161,-3.34746 6.64923,-2.68784 0.33767,0.65961 -5.6526,4.21753 -5.95294,4.75611 -1.83616,3.29265 -2.71967,10.29367 -4.12025,13.06554 -2.29477,4.54132 -5.40464,4.33577 -13.94694,16.80773 -0.40781,0.59538 -2.84586,1.73119 -6.44692,4.25601 -2.2138,1.55219 -2.98305,2.57298 -3.84381,4.65756 -0.66823,1.61832 0.15577,3.88377 -0.94868,5.65851 -0.64248,1.03221 -2.10843,0.78318 -2.06874,1.99009 0.067,2.03581 -0.66364,12.47488 -1.57145,15.92148 -0.34218,1.30004 -5.68435,5.47414 -7.67121,8.82846 -0.1523,0.25751 -2.04076,4.354 -3.59183,10.54884 -1.22631,4.8978 -4.11514,8.22465 -5.40762,10.92027 -0.58406,2.20088 -1.02874,3.93558 -2.26034,5.33331 -0.9804,1.11271 -2.6173,-0.16884 -4.04109,2.41775 -1.39017,2.52588 -0.11022,6.25981 -0.41432,9.6019 -0.13477,1.48385 -1.41476,10.26758 -2.3141,15.36998 -0.74624,4.23377 -3.04812,8.37054 -2.55589,12.64134 1.06206,9.21572 4.10589,15.30529 5.13433,23.24493 2.28795,17.66326 1.08361,44.18184 1.08284,53.43218 -2.9e-4,3.5088 -4.21058,8.05256 -3.99995,21.20457 0.16732,10.43531 5.61666,30.42492 5.61666,30.42492 0,0 0.37124,4.43688 0.1468,6.97583 -0.21593,2.44586 -1.41406,7.83068 -1.41406,7.83068 l -0.82129,-11.40835 c 0,0 -2.23685,-6.80734 -8.81689,-15.10374 -2.33255,-2.941 -3.60186,-12.43864 -6.73759,-10.63465 -3.07617,-9.79835 -1.38157,-32.12144 -1.38157,-32.12144 0,0 3.76986,-45.12951 3.8684,-48.2859 0.1867,-5.97999 -8.55032,-22.3752 -8.49665,-25.42086 0.1756,-9.96727 6.79104,-17.02966 8.42266,-26.43538 0.27825,-1.60409 0.31668,-7.10388 0.69011,-12.46464 0.23367,-3.35427 1.25235,-6.47583 0.52122,-9.10607 -1.22178,-4.39518 -6.67747,-9.72178 -10.25944,-14.24212 -3.92167,-4.94905 -4.94753,-5.47569 -5.93701,-8.90261 -0.98401,-3.40803 -0.30981,-10.24733 -0.30981,-10.24733 0,0 -1.90484,-6.85398 -3.73719,-9.84959 -1.63739,-2.67692 -4.3919,-4.35942 -6.36359,-6.7376 -3.58642,-4.32586 -9.22486,-12.37707 -12.04768,-18.72545 -0.98957,-2.22548 -1.31689,-5.74813 -0.92231,-6.07864 0.39458,-0.33066 6.45984,11.00369 6.45984,11.00369 0,0 3.36294,6.25955 7.61905,11.0876 5.28379,5.99388 7.27404,6.38966 8.47972,8.43994 2.53203,4.30586 1.97732,9.64142 3.51953,14.30275 0.914,2.76254 1.48666,5.83957 3.38137,8.04806 1.548,1.80434 3.12205,3.19555 6.0789,3.73022 1.3847,0.2505 0.86521,-4.497 2.64059,-9.64474 2.08931,-6.05795 2.61795,-6.59281 2.9819,-10.07674 0.52068,-4.98411 -1.29394,-8.03879 -0.9344,-12.05218 0.4716,-5.26386 2.42598,-10.42522 2.42147,-15.11705 -0.003,-2.69787 -1.05996,-10.55311 -2.52528,-13.76424 -0.73156,-1.60318 -2.51652,-3.00185 -3.33947,-3.88658 -0.52499,-0.56441 -1.64292,-5.62338 -1.21649,-11.49677 0.67836,-9.34333 1.18666,-12.47666 2.7027,-18.59083 1.22477,-4.93947 5.21545,-9.1761 5.26711,-15.09337 0.0451,-5.26893 -4.82266,-10.49056 -4.82056,-14.4806 10e-4,-1.98023 -0.14654,-5.30572 -0.14654,-5.30572 0,0 -4.2889,-2.0687 -6.15978,-3.61723 -1.32284,-1.0949 -1.06,-2.78993 -2.48568,-4.47684 -1.47032,-1.73974 -3.95187,-2.29408 -5.34186,-4.04148 -2.50511,-3.14926 -4.73983,-9.80446 -5.4202,-11.3121 -0.60296,-1.33612 1.2165,-8.55449 1.44571,-12.21689 0.2732,-4.36514 -0.56647,-1.43613 -0.2161,-6.22305 0.25338,-3.46168 1.41502,-3.8574 1.69513,-6.00287 0.49058,-3.7573 -1.48063,-6.73527 -1.75041,-8.04261 -0.31057,-1.50501 0.0512,-3.71233 -0.0421,-5.24621 -0.1538,-2.52966 -1.6002,-5.15613 -1.83553,-7.63912 -0.0955,-1.00701 1.05284,-4.39711 1.92046,-8.76277 1.04679,-5.26715 0.92079,-11.75201 0.92079,-11.75201 0,0 -0.68644,-1.5891 -1.95833,-3.28373 -1.40896,-1.87727 -3.42539,-3.90626 -3.60698,-4.53112 -0.27519,-0.94703 0.79416,-5.68619 -0.26937,-10.39385 -0.80544,-3.56521 3.65051,-14.29133 3.33076,-20.50996 -0.4756,-9.24951 -5.9544,-13.22558 -8.01973,-16.56495 -2.2322,-3.60921 -0.87726,-4.15697 -2.31998,-9.06168 -2.1976,-7.471023 -6.63024,-19.440722 -6.62813,-23.590173 z"
       id="path36"
       sodipodi:nodetypes="scassssssscssscssccccsssssssssssssscsssssscsszsssssssssscsssssssscsccsccssssssscssszcssssssssssssssscssssssssssscssssssss" /><path
       style="fill:url(#linearGradient75);fill-opacity:1;stroke:none;stroke-width:0.461949;filter:url(#filter20)"
       d="m 516.73457,613.22574 c 0,0 0.20441,6.09638 0.98877,9.01619 0.48196,1.79306 2.12678,3.67816 1.89317,8.16258 -0.41934,8.04721 -3.99481,18.57474 -4.15191,23.81512 -0.17486,5.82653 1.05429,9.11894 5.85228,21.45137 3.59485,9.24002 5.49499,15.52422 6.23777,16.84626 1.01381,1.80443 3.9516,4.54093 6.20308,6.49156 3.28648,2.84731 7.40724,4.94017 10.72127,7.89104 1.83691,1.63565 5.49519,6.86285 5.49519,6.86285 1.4131,2.06621 1.69331,2.64581 2.83303,4.61593 l 2.71094,2.88194 c 0,0 -1.53329,0.13927 -2.14923,-0.0732 -1.41601,-0.48847 -3.54595,-3.76584 -5.15319,-5.78821 -1.27188,-1.60034 -2.65769,-4.47746 -4.51824,-6.25229 -1.56201,-1.48997 -6.08961,-4.51594 -8.59689,-5.88591 -1.04143,-0.56908 -2.14923,-0.19539 -2.14923,-0.19539 l -1.44092,34.58289 c 0,0 -0.58657,19.32674 -0.95249,20.51521 -2.41886,7.85587 -6.03356,17.59894 -8.30382,23.25064 -0.82204,2.04642 -0.29308,8.71899 -0.29308,8.71899 0,0 0.92569,4.64459 0.80595,7.61996 -0.13978,3.4719 -1.34071,8.07982 -1.75845,12.08934 -0.22695,2.17964 -0.2991,4.76884 -0.39078,7.15594 -0.13326,3.47496 0.24148,5.22664 0.63496,8.15723 0.45191,3.36538 2.22252,12.82209 2.22252,12.82209 0,0 4.37852,17.64725 5.07996,26.6698 0.45842,5.89578 0.57334,9.67921 -0.0501,14.45836 -0.72349,5.557 -2.68363,7.76404 -4.00536,14.55605 -1.29463,6.65273 0.0682,19.29724 -0.68386,24.37414 -0.17786,1.20064 -0.43938,3.61454 -0.43938,3.61454 0,0 -0.56492,-2.23019 -0.68386,-3.37036 -0.88004,-8.43734 -0.15881,-23.72549 0.0812,-25.34506 0.30359,-2.05228 3.2964,-10.88796 4.04484,-14.48 0.36472,-1.75023 0.66197,-6.82843 -0.12024,-12.97726 -2.12247,-16.68044 -7.26375,-36.41633 -7.26375,-36.41633 0,0 -0.73371,-0.76899 -1.11782,-0.73898 -0.3532,0.0251 -0.80796,0.53306 -1.09452,0.91167 -1.59237,2.10383 -2.083,3.95125 -2.913,6.02032 -1.15139,2.8702 -1.39312,6.10138 -2.85084,8.82882 -1.58943,2.9739 -3.02742,3.97083 -3.02742,3.97083 l -0.0928,-2.14821 c 0,0 2.15872,-4.28582 3.00677,-6.52568 1.76825,-4.67029 4.02333,-11.47537 5.55758,-17.35172 1.00105,-3.83408 1.87904,-7.71694 2.37117,-11.64882 0.58717,-4.69068 0.89067,-11.1601 0.64934,-13.06007 -0.24949,-1.96521 -1.30505,-3.79285 -1.6384,-5.76146 -0.4539,-2.68028 -0.55066,-5.61542 -0.0251,-8.34866 1.23982,-6.47477 5.68601,-12.17772 7.33178,-18.56142 0.72901,-2.82772 1.13216,-6.41711 1.35089,-9.66162 0.7535,-11.17603 -0.5555,-22.41007 -0.14428,-33.60394 0.0922,-2.5133 -0.0576,-6.69035 1.3115,-8.80024 0.81462,-1.2556 1.25044,-5.93662 1.2285,-5.95119 0,0 0.23747,-3.09967 -0.66016,-4.65366 -1.79012,-3.09937 -5.13812,-7.35594 -7.14822,-11.70624 -0.52726,-1.14106 -1.32644,-2.20102 -1.62724,-3.61458 -0.37274,-1.75179 -0.0201,-4.71688 -0.41432,-6.58195 -0.79228,-3.72666 -2.35058,-6.65694 -4.11985,-9.68722 -1.15925,-1.98549 -2.84275,-5.39382 -3.71718,-5.40164 -2.14906,-0.0201 -4.54433,6.57578 -7.14437,9.6014 -1.34206,1.56171 -4.34482,4.39119 -4.34482,4.39119 0,0 -5.11541,3.67942 -7.14826,5.90198 -2.84106,3.10623 -3.42083,6.78705 -4.80364,10.32078 -1.321,3.37572 -1.20204,6.90288 -3.01068,10.04448 -1.57597,2.73744 -5.49122,7.32316 -5.93548,7.44826 -0.60977,0.17134 -1.89763,-0.10374 -1.89763,-0.10374 l 3.21893,-4.46519 c 0,0 2.63434,-2.46374 3.30965,-4.06258 0.82695,-1.95779 1.99594,-11.33724 4.79283,-16.2395 1.60991,-2.82181 7.71375,-8.85847 7.71375,-8.85847 0,0 7.26548,-7.02537 9.87584,-10.39983 1.7453,-2.25619 3.40745,-4.71232 3.97166,-6.95965 0.91957,-3.66283 -0.80983,-7.10372 -0.81709,-8.26824 -0.0206,-3.29891 4.13861,-11.62532 4.13861,-11.62532 0,0 3.17727,-7.35723 3.45863,-11.27994 0.35421,-4.93596 -1.82332,-6.39833 -1.84426,-9.47119 -0.0201,-2.80137 1.55123,-7.73474 1.55123,-7.73474 z"
       id="path37"
       sodipodi:nodetypes="cssssssscccssssccsscsssscsssscsssscssssccsssssssssscssssssscssssccsscssscssc" /><text
       xml:space="preserve"
       style="font-style:normal;font-variant:normal;font-weight:normal;font-stretch:normal;font-size:178.622px;font-family:Georgia;-inkscape-font-specification:Georgia;text-align:start;letter-spacing:13.8585px;writing-mode:lr-tb;direction:ltr;text-anchor:start;fill:#eeb84e;fill-opacity:1;stroke:none;stroke-width:0.461949;filter:url(#filter13)"
       x="136.3033"
       y="558.11548"
       id="text37"><tspan
         sodipodi:role="line"
         id="tspan37"
         style="font-style:normal;font-variant:normal;font-weight:normal;font-stretch:normal;font-size:178.622px;font-family:Georgia;-inkscape-font-specification:Georgia;letter-spacing:13.8585px;fill:#eeb84e;fill-opacity:1;stroke:none;stroke-width:0.461949"
         x="136.3033"
         y="558.11548">VIT<tspan
   style="font-size:178.622px;letter-spacing:13.8585px;fill:none;fill-opacity:1;stroke:none;stroke-width:0.461949"
   id="tspan38">I</tspan>UM</tspan></text><text
       xml:space="preserve"
       style="font-style:normal;font-variant:normal;font-weight:normal;font-stretch:normal;font-size:50.8px;font-family:Georgia;-inkscape-font-specification:Georgia;text-align:start;letter-spacing:13.8585px;writing-mode:lr-tb;direction:ltr;text-anchor:start;fill:#ffffff;stroke:none;stroke-width:0.461949;filter:url(#filter15)"
       x="147.82503"
       y="650.62207"
       id="text37-8"><tspan
         sodipodi:role="line"
         id="tspan37-2"
         style="font-style:normal;font-variant:normal;font-weight:normal;font-stretch:normal;font-size:50.8px;font-family:Georgia;-inkscape-font-specification:Georgia;letter-spacing:13.8585px;fill:#ffffff;stroke:none;stroke-width:0.461949"
         x="147.82503"
         y="650.62207">DIVADELNÍ SOUBOR</tspan></text></g></svg>
