<?xml version="1.0" encoding="UTF-8" standalone="no"?>
<!-- Created with Inkscape (http://www.inkscape.org/) -->

<svg
   width="180mm"
   height="51mm"
   viewBox="0 0 180 51"
   version="1.1"
   id="svg1"
   inkscape:version="1.4.3 (0d15f75, 2025-12-25)"
   sodipodi:docname="VITIUM_logo.svg"
   xmlns:inkscape="http://www.inkscape.org/namespaces/inkscape"
   xmlns:sodipodi="http://sodipodi.sourceforge.net/DTD/sodipodi-0.dtd"
   xmlns="http://www.w3.org/2000/svg"
   xmlns:svg="http://www.w3.org/2000/svg">
  <sodipodi:namedview
     id="namedview1"
     pagecolor="#124551"
     bordercolor="#000000"
     borderopacity="0.25"
     inkscape:showpageshadow="2"
     inkscape:pageopacity="0.0"
     inkscape:pagecheckerboard="0"
     inkscape:deskcolor="#d1d1d1"
     inkscape:document-units="mm"
     inkscape:zoom="1.0396254"
     inkscape:cx="379.94454"
     inkscape:cy="181.3153"
     inkscape:window-width="2560"
     inkscape:window-height="1369"
     inkscape:window-x="2552"
     inkscape:window-y="-8"
     inkscape:window-maximized="1"
     inkscape:current-layer="layer1" />
  <defs
     id="defs1" />
  <g
     inkscape:label="Vrstva 1"
     inkscape:groupmode="layer"
     id="layer1">
    <path
       d="m 26.960916,1.6637854 c 1.367896,0 2.513542,-0.04498 3.436938,-0.134937 v 0.915458 C 28.865916,2.7856194 27.659416,4.1111814 26.781,6.4183434 L 16.044208,34.12022 H 15.308666 L 4.1485416,5.3705934 C 3.4050624,3.4814734 2.3546666,2.5051604 1,2.4469524 v -0.915458 c 1.2356041,0.08996 2.8654374,0.134937 4.8894999,0.134937 2.6193752,0 4.5693541,-0.04498 5.8472911,-0.134937 v 0.915458 c -1.16152,0.04498 -1.9896659,0.185208 -2.4897289,0.423333 -0.500062,0.238125 -0.748771,0.661459 -0.748771,1.272646 0,0.505354 0.179917,1.219732 0.537105,2.143122 L 17.316854,28.25176 24.772812,8.9424734 c 0.611188,-1.57692 0.915458,-2.82046 0.915458,-3.72798 0,-0.965729 -0.328083,-1.661583 -0.981604,-2.087562 -0.656166,-0.423333 -1.658937,-0.650875 -3.013604,-0.679979 v -0.915458 c 1.740958,0.08996 3.497792,0.134937 5.267854,0.134937"
       id="path49"
       style="stroke-width:0.264583;fill:#ffffff" />
    <path
       d="m 44.984333,2.8014944 c -0.500063,0.193145 -0.841375,0.550333 -1.026584,1.071562 -0.185208,0.521229 -0.277812,1.354667 -0.277812,2.500317 V 29.05345 c 0,1.14564 0.0926,1.97908 0.277812,2.50031 0.185209,0.52123 0.529167,0.87842 1.026584,1.07156 0.497416,0.19315 1.299104,0.31221 2.39977,0.35719 v 0.91546 c -1.399645,-0.09 -3.33375,-0.13494 -5.804958,-0.13494 -2.619375,0 -4.569354,0.045 -5.847291,0.13494 v -0.91546 c 1.100666,-0.045 1.899708,-0.16404 2.39977,-0.35719 0.497417,-0.19314 0.841375,-0.55033 1.026584,-1.07156 0.185208,-0.52123 0.277812,-1.35467 0.277812,-2.50031 V 6.3733734 c 0,-1.14565 -0.0926,-1.979088 -0.277812,-2.500317 -0.185209,-0.521229 -0.529167,-0.878417 -1.026584,-1.071562 -0.500062,-0.193146 -1.299104,-0.312209 -2.39977,-0.357188 v -0.915458 c 1.264708,0.08996 3.214687,0.134937 5.847291,0.134937 2.471208,0 4.405313,-0.04498 5.804958,-0.134937 v 0.915458 c -1.100666,0.04498 -1.902354,0.164042 -2.39977,0.357188"
       id="path50"
       style="stroke-width:0.264583;fill:#ffffff" />
    <path
       d="m 54.705124,7.3761434 c 0,-1.78594 -0.111125,-3.73592 -0.336021,-5.847295 2.529417,0.08996 6.831542,0.134937 12.901084,0.134937 6.069541,0 10.30552,-0.04498 12.834937,-0.134937 -0.209021,2.172229 -0.312208,4.122205 -0.312208,5.847295 0,1.53193 0.04498,2.7834096 0.134937,3.7491396 h -1.04775 C 78.641978,8.7599134 78.340353,7.0057234 77.975228,5.8680134 77.610103,4.7303064 76.969811,3.8968694 76.054353,3.3677024 75.138895,2.8385354 73.736603,2.5765984 71.847478,2.5765984 h -2.4765 V 28.58249 c 0,1.26471 0.119063,2.19075 0.357188,2.77813 0.238125,0.58737 0.669395,0.99218 1.293812,1.21708 0.624417,0.22225 1.613958,0.35719 2.968625,0.40217 v 0.91545 c -1.608667,-0.0899 -3.847041,-0.13493 -6.717771,-0.13493 -3.050645,0 -5.304895,0.045 -6.76275,0.13493 v -0.91545 c 1.354667,-0.045 2.344209,-0.17728 2.968625,-0.40217 0.624417,-0.22225 1.055688,-0.62971 1.293813,-1.21708 0.238125,-0.58738 0.357187,-1.51342 0.357187,-2.77813 V 2.5765984 h -2.4765 c -1.889125,0 -3.291416,0.264583 -4.206875,0.791104 -0.915458,0.529167 -1.555749,1.362604 -1.920874,2.500311 -0.365125,1.13771 -0.66675,2.8919 -0.904875,5.2572696 h -1.050396 c 0.08996,-0.96837 0.134937,-2.2172096 0.134937,-3.7491396"
       id="path51"
       style="stroke-width:0.264583;fill:#ffffff" />
    <path
       d="m 132.01373,2.9020354 c -0.51329,0.261938 -0.86254,0.687917 -1.0504,1.283229 -0.18521,0.595313 -0.27781,1.481669 -0.27781,2.656419 V 20.59207 c 0,2.18811 -0.14552,4.06665 -0.43656,5.63563 -0.29105,1.56898 -0.76994,2.921 -1.43934,4.05077 -0.77258,1.30969 -1.89971,2.34685 -3.38137,3.11415 -1.48167,0.76729 -3.14325,1.15093 -4.99004,1.15093 -3.34698,0 -5.90815,-0.8255 -7.67821,-2.4765 -0.90752,-0.84931 -1.60338,-1.7436 -2.08756,-2.69081 -0.48419,-0.94456 -0.82286,-2.08756 -1.016,-3.42635 -0.19315,-1.3388 -0.29105,-3.07975 -0.29105,-5.22288 V 6.3733734 c 0,-1.14565 -0.0926,-1.979088 -0.28045,-2.500317 -0.18521,-0.521229 -0.52917,-0.878417 -1.02659,-1.071562 -0.49741,-0.193146 -1.2991,-0.312209 -2.39977,-0.357188 v -0.915458 c 1.29381,0.08996 3.24379,0.134937 5.84729,0.134937 2.45534,0 4.39738,-0.04498 5.82613,-0.134937 v 0.915458 c -1.10067,0.04498 -1.90236,0.164042 -2.39977,0.357188 -0.49742,0.193145 -0.84138,0.550333 -1.02659,1.071562 -0.1852,0.521229 -0.27781,1.354667 -0.27781,2.500317 V 21.50753 c 0,2.43946 0.16404,4.46352 0.49213,6.07219 0.32808,1.60602 1.016,2.90248 2.06375,3.88408 1.04775,0.98161 2.60085,1.47373 4.65402,1.47373 3.22791,0 5.49804,-1.03452 6.80773,-3.10356 1.30968,-2.06904 1.9632,-4.97681 1.9632,-8.7286 V 6.8416834 c 0,-1.12977 -0.12964,-2.000252 -0.39158,-2.611439 -0.25929,-0.611188 -0.68527,-1.04775 -1.27264,-1.317625 -0.58738,-0.26723 -1.41817,-0.423334 -2.48973,-0.468313 v -0.915458 c 1.10066,0.08996 2.65641,0.134937 4.6646,0.134937 1.83092,0 3.24379,-0.04498 4.24127,-0.134937 v 0.915458 c -1.05569,0.04498 -1.8415,0.198438 -2.35479,0.457729"
       id="path52"
       style="stroke-width:0.264583;fill:#ffffff" />
    <path
       d="m 174.87094,2.8014944 c -0.49742,0.193145 -0.84138,0.550333 -1.02659,1.071562 -0.18521,0.521229 -0.27781,1.354667 -0.27781,2.500317 V 29.05345 c 0,1.14564 0.0926,1.97908 0.27781,2.50031 0.18521,0.52123 0.52917,0.87842 1.02659,1.07156 0.49741,0.19315 1.2991,0.31221 2.39977,0.35719 v 0.91546 c -1.42875,-0.09 -3.36286,-0.13494 -5.80496,-0.13494 -2.61938,0 -4.56936,0.045 -5.84729,0.13494 v -0.91546 c 1.10066,-0.045 1.89706,-0.16404 2.38918,-0.35719 0.49213,-0.19314 0.8308,-0.55033 1.016,-1.07156 0.18521,-0.52123 0.27782,-1.35467 0.27782,-2.50031 V 4.5874314 L 158.29744,34.12022 h -0.73555 L 146.04458,4.4551394 V 28.58514 c 0,1.17475 0.10319,2.0611 0.31221,2.65641 0.20902,0.59532 0.59796,1.02394 1.1721,1.28323 0.5715,0.25929 1.46315,0.41275 2.667,0.45773 v 0.91546 c -1.08743,-0.09 -2.64054,-0.13494 -4.6646,-0.13494 -1.81504,0 -3.23056,0.045 -4.24127,0.13494 v -0.91546 c 1.05569,-0.045 1.8415,-0.19579 2.35479,-0.45773 0.51329,-0.25929 0.86783,-0.68791 1.06098,-1.28323 0.19315,-0.59531 0.29104,-1.48166 0.29104,-2.65641 V 6.3760134 c 0,-1.14564 -0.0926,-1.979082 -0.27781,-2.500311 -0.18521,-0.521229 -0.52917,-0.878417 -1.02658,-1.071563 -0.50007,-0.193145 -1.29911,-0.312208 -2.39978,-0.357187 v -0.915458 c 0.99748,0.08996 2.41036,0.134937 4.24128,0.134937 1.60602,0 2.90777,-0.04498 3.90525,-0.134937 L 159.48277,28.05068 169.3041,1.6664314 h 2.16429 c 2.43946,0 4.37621,-0.04498 5.80496,-0.134937 v 0.915458 c -1.10066,0.04498 -1.90235,0.164042 -2.39977,0.357187"
       id="path53"
       style="stroke-width:0.264583;fill:#ffffff" />
    <path
       d="m 3.2330833,40.68982 0.333375,-0.005 c 1.2594166,-0.0265 1.9499791,-0.0397 2.0690416,-0.0397 1.6166042,0 2.8257502,0.40482 3.6327292,1.2118 0.8069789,0.80698 1.2091459,1.98702 1.2091459,3.53483 0,0.99483 -0.195792,1.86796 -0.5847289,2.61408 -0.391584,0.74877 -0.957792,1.32557 -1.703917,1.73567 -0.746125,0.40746 -1.635125,0.61383 -2.6722917,0.61383 -0.1243541,0 -0.4233333,-0.008 -0.8942916,-0.0212 -0.4709584,-0.0132 -0.8149167,-0.0212 -1.0292292,-0.0212 -0.7487708,0 -1.317625,0.0132 -1.7012708,0.0397 v -0.27517 c 0.3307292,-0.0132 0.5715,-0.0476 0.7196667,-0.10848 0.1508125,-0.0582 0.2513541,-0.16404 0.3069166,-0.32014 0.055562,-0.15611 0.084667,-0.40482 0.084667,-0.74878 v -6.80508 c 0,-0.34396 -0.026458,-0.59267 -0.084667,-0.74877 -0.055562,-0.1561 -0.15875,-0.26458 -0.3069166,-0.32279 C 2.4605,40.96522 2.222375,40.93082 1.8916458,40.91759 v -0.27517 c 0.492125,0.0317 0.936625,0.0476 1.3387916,0.0476 m 1.127125,8.97732 c 0.052917,0.16404 0.1534584,0.27781 0.2989792,0.34131 0.1455208,0.0635 0.3624792,0.0979 0.6535208,0.0979 0.9736667,0 1.7356667,-0.17727 2.2912917,-0.52916 0.5529791,-0.3519 0.941917,-0.86784 1.169458,-1.54517 0.224896,-0.67733 0.338667,-1.53987 0.338667,-2.58762 0,-1.04775 -0.124354,-1.91294 -0.367771,-2.5744 -0.246062,-0.6641 -0.6455832,-1.15887 -1.2012082,-1.48696 -0.555625,-0.32808 -1.30175,-0.49212 -2.2410208,-0.49212 -0.28575,0 -0.5000625,0.0318 -0.6429375,0.0979 -0.142875,0.0635 -0.2407708,0.17992 -0.2936875,0.34396 -0.052917,0.16404 -0.079375,0.41011 -0.079375,0.73554 v 6.858 c 0,0.33073 0.026458,0.57679 0.079375,0.74084"
       id="path54"
       style="stroke-width:0.264583;fill:#ffffff" />
    <path
       d="m 17.73225,41.0232 c -0.150813,0.0582 -0.251355,0.16404 -0.306917,0.32279 -0.05556,0.1561 -0.08467,0.40481 -0.08467,0.75142 v 6.80243 c 0,0.34396 0.02646,0.59267 0.08467,0.74878 0.05556,0.1561 0.15875,0.26458 0.306917,0.32279 0.148166,0.0582 0.388937,0.0926 0.719666,0.10848 v 0.27516 c -0.420687,-0.0265 -1.000125,-0.0397 -1.740958,-0.0397 -0.785812,0 -1.370542,0.0132 -1.754187,0.0397 v -0.27516 c 0.330729,-0.0132 0.568854,-0.0476 0.719666,-0.10848 0.150813,-0.0582 0.251354,-0.16404 0.306917,-0.32279 0.05556,-0.15611 0.08467,-0.40482 0.08467,-0.74878 v -6.80243 c 0,-0.34396 -0.02911,-0.59267 -0.08467,-0.75142 -0.05556,-0.15875 -0.15875,-0.26458 -0.306917,-0.32279 C 15.525625,40.965 15.2875,40.9306 14.956771,40.91737 V 40.6422 c 0.378354,0.0265 0.965729,0.0397 1.754187,0.0397 0.740833,0 1.320271,-0.0132 1.740958,-0.0397 v 0.27517 c -0.330729,0.0132 -0.5715,0.0503 -0.719666,0.10583"
       id="path55"
       style="stroke-width:0.264583;fill:#ffffff" />
    <path
       d="m 29.998333,40.68189 c 0.410104,0 0.754062,-0.0132 1.031875,-0.0397 v 0.27517 C 30.569833,41.02054 30.21,41.41742 29.945416,42.11063 l -3.222625,8.31056 h -0.219604 l -3.346979,-8.62542 c -0.22225,-0.56621 -0.537104,-0.85989 -0.944563,-0.87841 v -0.27517 c 0.370417,0.0265 0.859896,0.0397 1.465792,0.0397 0.785813,0 1.370542,-0.0132 1.754188,-0.0397 v 0.27517 c -0.34925,0.0132 -0.597959,0.0556 -0.746125,0.127 -0.150813,0.0714 -0.224896,0.19843 -0.224896,0.381 0,0.15081 0.05292,0.36512 0.161396,0.64293 l 2.484437,6.59077 2.235729,-5.79173 c 0.182563,-0.4736 0.275167,-0.84666 0.275167,-1.11918 0,-0.29104 -0.0979,-0.50007 -0.293688,-0.62707 -0.195791,-0.127 -0.497416,-0.19579 -0.904875,-0.20372 v -0.27517 c 0.52123,0.0265 1.04775,0.0397 1.579563,0.0397"
       id="path56"
       style="stroke-width:0.264583;fill:#ffffff" />
    <path
       d="m 42.042166,50.07724 v 0.27517 c -0.375708,-0.0265 -0.865187,-0.0397 -1.473729,-0.0397 -0.780521,0 -1.36525,0.0132 -1.754188,0.0397 v -0.27517 c 0.34925,-0.0132 0.597959,-0.0556 0.746125,-0.127 0.148167,-0.0714 0.224896,-0.19844 0.224896,-0.381 0,-0.1561 -0.05292,-0.37042 -0.161396,-0.64294 l -0.84402,-2.24896 h -3.307292 l -0.563563,1.45257 c -0.182562,0.46566 -0.275166,0.83873 -0.275166,1.12448 0,0.28575 0.0979,0.49741 0.291041,0.62177 0.193146,0.12435 0.494771,0.19314 0.899584,0.20108 v 0.27517 c -0.521229,-0.0265 -1.04775,-0.0397 -1.579563,-0.0397 -0.410104,0 -0.751416,0.0132 -1.023937,0.0397 v -0.27517 c 0.455083,-0.10319 0.814916,-0.50006 1.076854,-1.19062 l 3.227917,-8.31057 h 0.22225 l 3.341687,8.62542 c 0.22225,0.56621 0.53975,0.8599 0.949854,0.87842 m -4.892146,-7.77082 -1.57427,4.09046 h 3.106208 l -1.534583,-4.09046 z"
       id="path57"
       style="stroke-width:0.264583;fill:#ffffff" />
    <path
       d="m 46.860228,40.68982 0.333375,-0.005 c 1.259417,-0.0265 1.94998,-0.0397 2.069042,-0.0397 1.616604,0 2.82575,0.40482 3.632729,1.2118 0.806979,0.80698 1.209146,1.98702 1.209146,3.53483 0,0.99483 -0.195792,1.86796 -0.584729,2.61408 -0.391583,0.74877 -0.957792,1.32557 -1.703917,1.73567 -0.746125,0.40746 -1.635125,0.61383 -2.672291,0.61383 -0.124355,0 -0.423334,-0.008 -0.894292,-0.0212 -0.470958,-0.0132 -0.814917,-0.0212 -1.029229,-0.0212 -0.748771,0 -1.317625,0.0132 -1.701271,0.0397 v -0.27517 c 0.330729,-0.0132 0.568854,-0.0476 0.719667,-0.10848 0.150812,-0.0582 0.251354,-0.16404 0.306916,-0.32014 0.05556,-0.15611 0.08467,-0.40482 0.08467,-0.74878 v -6.80508 c 0,-0.34396 -0.02646,-0.59267 -0.08467,-0.74877 -0.05556,-0.1561 -0.15875,-0.26458 -0.306916,-0.32279 -0.150813,-0.0582 -0.388938,-0.0926 -0.719667,-0.10583 v -0.27517 c 0.492125,0.0317 0.936625,0.0476 1.338792,0.0476 m 1.127125,8.97732 c 0.05292,0.16404 0.153458,0.27781 0.298979,0.34131 0.145521,0.0635 0.362479,0.0979 0.653521,0.0979 0.973666,0 1.735666,-0.17727 2.291291,-0.52916 0.552979,-0.3519 0.941917,-0.86784 1.169459,-1.54517 0.224895,-0.67733 0.338666,-1.53987 0.338666,-2.58762 0,-1.04775 -0.121708,-1.91294 -0.367771,-2.5744 -0.246062,-0.6641 -0.645583,-1.15887 -1.201208,-1.48696 -0.555625,-0.32808 -1.30175,-0.49212 -2.241021,-0.49212 -0.28575,0 -0.500062,0.0318 -0.642937,0.0979 -0.142875,0.0635 -0.240771,0.17992 -0.293688,0.34396 -0.05292,0.16404 -0.07937,0.41011 -0.07937,0.73554 v 6.858 c 0,0.33073 0.02646,0.57679 0.07937,0.74084"
       id="path58"
       style="stroke-width:0.264583;fill:#ffffff" />
    <path
       d="m 65.605957,48.59822 c 0,0.51858 0.03175,1.10331 0.0926,1.75419 -0.621771,-0.0265 -1.666875,-0.0397 -3.140605,-0.0397 -1.754187,0 -3.07975,0.0132 -3.976687,0.0397 v -0.27517 c 0.330729,-0.0132 0.568854,-0.0476 0.719667,-0.10583 0.150812,-0.0582 0.251354,-0.16404 0.306916,-0.32279 0.05556,-0.15611 0.08467,-0.40482 0.08467,-0.74878 v -6.80508 c 0,-0.34396 -0.02646,-0.59267 -0.08467,-0.74877 -0.05556,-0.1561 -0.15875,-0.26194 -0.306916,-0.32015 -0.150813,-0.0582 -0.388938,-0.0926 -0.719667,-0.10583 v -0.27517 c 0.896937,0.0265 2.2225,0.0397 3.976687,0.0397 1.344084,0 2.29923,-0.0132 2.865438,-0.0397 -0.0635,0.59796 -0.09525,1.13771 -0.09525,1.61925 0,0.35719 0.01323,0.6403 0.03969,0.84932 h -0.314854 c -0.06615,-0.59267 -0.150812,-1.03452 -0.251354,-1.32557 -0.100542,-0.29104 -0.269875,-0.50006 -0.508,-0.63235 -0.238125,-0.13229 -0.597958,-0.19844 -1.082146,-0.19844 H 62.07377 c -0.330729,0 -0.5715,0.0265 -0.719667,0.0794 -0.150812,0.0529 -0.251354,0.1561 -0.306916,0.31221 -0.05556,0.15345 -0.08467,0.40216 -0.08467,0.74612 v 3.23586 h 0.910167 c 0.460375,0 0.764645,-0.13759 0.918104,-0.41275 0.150812,-0.27517 0.246062,-0.55563 0.280458,-0.84138 0.03704,-0.28575 0.06085,-0.47096 0.07408,-0.55562 h 0.314855 c -0.03175,0.45243 -0.04763,0.88106 -0.04763,1.29381 l 0.0053,0.65616 c 0,0.46567 0.02646,1.1139 0.07937,1.94734 h -0.314854 c -0.0079,-0.0635 -0.0344,-0.28311 -0.07673,-0.66411 -0.04233,-0.37835 -0.166688,-0.66675 -0.370417,-0.85989 -0.206375,-0.19315 -0.492125,-0.29104 -0.865187,-0.29104 h -0.910167 v 3.29406 c 0,0.34396 0.0291,0.59267 0.08467,0.74612 0.05556,0.15346 0.15875,0.25665 0.306916,0.31221 0.150813,0.0529 0.388938,0.0794 0.719667,0.0794 h 1.005417 c 0.5715,0 1.005416,-0.0767 1.30175,-0.22754 0.296333,-0.15082 0.510646,-0.39423 0.642937,-0.73025 0.132292,-0.33603 0.232834,-0.8255 0.304271,-1.47373 h 0.314854 c -0.02646,0.24606 -0.03969,0.57679 -0.03969,0.99218"
       id="path59"
       style="stroke-width:0.264583;fill:#ffffff" />
    <path
       d="m 72.971957,41.0232 c -0.150812,0.0582 -0.251354,0.16404 -0.306916,0.32279 -0.05556,0.1561 -0.08467,0.40481 -0.08467,0.75142 v 6.80243 c 0,0.34396 0.0291,0.59267 0.08467,0.74613 0.05556,0.15346 0.15875,0.25665 0.306916,0.31221 0.148167,0.0529 0.388938,0.0794 0.719667,0.0794 h 1.005417 c 0.5715,0 1.005416,-0.0794 1.30175,-0.24077 0.296333,-0.16139 0.510645,-0.41804 0.642937,-0.76994 0.132292,-0.35189 0.232833,-0.87047 0.304271,-1.5531 h 0.314854 c -0.02646,0.28575 -0.03969,0.66146 -0.03969,1.12448 0,0.51858 0.03175,1.10331 0.0926,1.75419 -0.621771,-0.0265 -1.666875,-0.0397 -3.140604,-0.0397 -1.754188,0 -3.07975,0.0132 -3.976688,0.0397 v -0.27517 c 0.330729,-0.0132 0.568854,-0.0476 0.719667,-0.10848 0.150812,-0.0582 0.251354,-0.16404 0.306916,-0.32279 0.05556,-0.1561 0.08467,-0.40481 0.08467,-0.74877 v -6.80244 c 0,-0.34396 -0.0291,-0.59267 -0.08467,-0.75142 -0.05556,-0.15875 -0.15875,-0.26458 -0.306916,-0.32279 -0.150813,-0.0582 -0.388938,-0.0926 -0.719667,-0.10583 v -0.27517 c 0.378354,0.0265 0.965729,0.0397 1.754188,0.0397 0.740833,0 1.32027,-0.0132 1.740958,-0.0397 v 0.27517 c -0.330729,0.0132 -0.5715,0.0503 -0.719667,0.10583"
       id="path60"
       style="stroke-width:0.264583;fill:#ffffff" />
    <path
       d="m 89.42904,41.05495 c -0.153458,0.0794 -0.259291,0.20637 -0.3175,0.38629 -0.05821,0.17727 -0.08731,0.4445 -0.08731,0.7964 v 8.18356 h -0.314854 l -5.759979,-8.90058 v 7.239 c 0,0.35189 0.03175,0.61912 0.0926,0.79639 0.0635,0.17727 0.179917,0.30692 0.351896,0.38629 0.171979,0.0767 0.439208,0.12436 0.799041,0.13759 v 0.27516 c -0.325437,-0.0265 -0.791104,-0.0397 -1.399645,-0.0397 -0.545042,0 -0.968375,0.0132 -1.272646,0.0397 v -0.27516 c 0.3175,-0.0132 0.552979,-0.0582 0.706437,-0.13759 0.153459,-0.0794 0.259292,-0.20637 0.3175,-0.38629 0.05821,-0.17727 0.08731,-0.4445 0.08731,-0.79639 v -6.66221 c 0,-0.34396 -0.0291,-0.59267 -0.08467,-0.75142 -0.05556,-0.1561 -0.15875,-0.26194 -0.306917,-0.32015 -0.150812,-0.0582 -0.388937,-0.0926 -0.719666,-0.10847 V 40.6422 c 0.298979,0.0265 0.722312,0.0397 1.272646,0.0397 0.410104,0 0.767291,-0.0132 1.071562,-0.0397 l 4.841875,7.46125 v -5.86581 c 0,-0.3519 -0.0291,-0.61913 -0.08996,-0.7964 C 88.5559,41.26132 88.439489,41.13432 88.264864,41.05495 88.090239,40.97825 87.82301,40.93059 87.46053,40.91737 V 40.6422 c 0.325438,0.0265 0.791105,0.0397 1.399646,0.0397 0.545042,0 0.968375,-0.0132 1.272646,-0.0397 v 0.27517 c -0.3175,0.0132 -0.552979,0.0582 -0.706437,0.13758"
       id="path61"
       style="stroke-width:0.264583;fill:#ffffff" />
    <path
       d="m 97.244832,41.0232 c -0.150813,0.0582 -0.251354,0.16404 -0.306917,0.32279 -0.05556,0.1561 -0.08467,0.40746 -0.08467,0.74877 v 6.80244 c 0,0.34396 0.0291,0.59267 0.08467,0.74877 0.05556,0.1561 0.15875,0.26458 0.306917,0.32279 0.150812,0.0582 0.388937,0.0926 0.719667,0.10583 v 0.27517 c -0.420688,-0.0265 -1.000125,-0.0397 -1.740959,-0.0397 -0.785812,0 -1.370541,0.0132 -1.754187,0.0397 v -0.27517 c 0.330729,-0.0132 0.568854,-0.0476 0.719667,-0.10583 0.150812,-0.0582 0.251354,-0.16404 0.309562,-0.32279 0.05556,-0.1561 0.08467,-0.40481 0.08467,-0.74877 v -6.80244 c 0,-0.34396 -0.0291,-0.59267 -0.08467,-0.74877 -0.05556,-0.1561 -0.15875,-0.26194 -0.309562,-0.32279 -0.150813,-0.0582 -0.388938,-0.0926 -0.719667,-0.10583 V 40.6422 c 0.378354,0.0265 0.963083,0.0397 1.754187,0.0397 0.740834,0 1.320271,-0.0132 1.740959,-0.0397 v 0.27517 c -0.33073,0.0132 -0.568855,0.0503 -0.719667,0.10583 m -1.098021,-2.05052 c 0.216959,-0.18521 0.481542,-0.42069 0.796396,-0.70909 0.314854,-0.28839 0.563562,-0.48947 0.746125,-0.60589 0.137583,-0.09 0.277812,-0.13494 0.415396,-0.13494 0.17727,0 0.32015,0.0767 0.42333,0.22754 0.0476,0.0847 0.0741,0.16934 0.0741,0.254 0,0.20109 -0.11906,0.381 -0.36248,0.5424 -0.182558,0.11112 -0.436558,0.23019 -0.75935,0.35454 -0.322792,0.12435 -0.637646,0.25135 -0.944562,0.37571 -0.306917,0.12435 -0.658813,0.28839 -1.055688,0.48948 l -0.09525,-0.17992 c 0.291042,-0.22225 0.542396,-0.42862 0.759354,-0.61383"
       id="path62"
       style="stroke-width:0.264583;fill:#ffffff" />
    <path
       d="m 110.39992,49.41314 c 0.39158,0.57414 0.99747,0.85989 1.81504,0.85989 0.31221,0 0.60325,-0.0635 0.87312,-0.19579 0.26988,-0.12965 0.48948,-0.33073 0.65617,-0.6059 0.16669,-0.27516 0.25135,-0.61647 0.25135,-1.02922 0,-0.3519 -0.0847,-0.6694 -0.25664,-0.94721 -0.17198,-0.27782 -0.40482,-0.53446 -0.6985,-0.76729 -0.29369,-0.23284 -0.68792,-0.49478 -1.1774,-0.79111 -0.54504,-0.32544 -0.9816,-0.61912 -1.31233,-0.87842 -0.33073,-0.25929 -0.60061,-0.56885 -0.81227,-0.92868 -0.21167,-0.35984 -0.3175,-0.78317 -0.3175,-1.27 0,-0.51859 0.11641,-0.95515 0.35189,-1.31234 0.23548,-0.35718 0.54769,-0.62441 0.93663,-0.79904 0.39158,-0.17727 0.82021,-0.26458 1.28852,-0.26458 0.28046,0 0.52387,0.0238 0.7276,0.0714 0.20373,0.0476 0.37042,0.10583 0.50536,0.17462 0.13493,0.0688 0.28046,0.15611 0.44185,0.26458 0.20638,0.12965 0.36248,0.19315 0.46831,0.19315 0.0847,0 0.15082,-0.0476 0.19315,-0.14287 0.045,-0.0952 0.0794,-0.24871 0.10583,-0.45773 h 0.31486 c -0.045,0.53445 -0.0661,1.46843 -0.0661,2.79929 h -0.31485 c -0.037,-0.46831 -0.13759,-0.90223 -0.30427,-1.29911 -0.16669,-0.39687 -0.41275,-0.71966 -0.73555,-0.96837 -0.32279,-0.24871 -0.7276,-0.37042 -1.20914,-0.37042 -0.32279,0 -0.60854,0.0661 -0.86254,0.20109 -0.254,0.13493 -0.45244,0.32014 -0.59532,0.56356 -0.14287,0.24077 -0.21431,0.51858 -0.21431,0.83079 0,0.49477 0.14817,0.89429 0.44979,1.19856 0.29898,0.30427 0.64823,0.57679 1.04775,0.82021 0.39952,0.24342 0.6694,0.40746 0.80698,0.49213 0.57679,0.36247 1.03188,0.67468 1.36525,0.94191 0.33338,0.26459 0.60325,0.57415 0.80434,0.9234 0.20108,0.35189 0.30162,0.75671 0.30162,1.22237 0,0.56357 -0.12964,1.03982 -0.38894,1.42875 -0.25929,0.39159 -0.60854,0.68527 -1.04775,0.88106 -0.4392,0.1958 -0.93133,0.29369 -1.47637,0.29369 -0.43656,0 -0.7964,-0.045 -1.0795,-0.13758 -0.28046,-0.0926 -0.54769,-0.21431 -0.7964,-0.37042 -0.20637,-0.12964 -0.36248,-0.19314 -0.46831,-0.19314 -0.0847,0 -0.15081,0.0476 -0.19315,0.14287 -0.045,0.0952 -0.0794,0.24871 -0.10583,0.45773 h -0.31485 c 0.0344,-0.50006 0.0529,-1.59544 0.0529,-3.28877 h 0.31486 c 0.0635,0.92869 0.29104,1.6801 0.68262,2.25425"
       id="path63"
       style="stroke-width:0.264583;fill:#ffffff" />
    <path
       d="m 126.53156,41.03907 c 0.65352,0.39159 1.16152,0.96309 1.52135,1.71186 0.35984,0.74877 0.53975,1.63777 0.53975,2.66964 0,1.03188 -0.1852,1.90236 -0.55562,2.67759 -0.37042,0.77787 -0.88635,1.38112 -1.54781,1.80975 -0.66146,0.42862 -1.41288,0.64293 -2.2569,0.64293 -0.84402,0 -1.63248,-0.19579 -2.286,-0.59002 -0.65352,-0.39423 -1.16152,-0.96308 -1.52135,-1.71185 -0.35984,-0.74877 -0.53975,-1.63777 -0.53975,-2.66965 0,-1.03187 0.18521,-1.90235 0.55562,-2.67758 0.37042,-0.77787 0.88636,-1.37848 1.54782,-1.8071 0.66145,-0.42863 1.41287,-0.64294 2.25689,-0.64294 0.84402,0 1.63248,0.19579 2.286,0.59002 m -3.88673,0.26723 c -0.44714,0.40746 -0.7911,0.97896 -1.03187,1.70656 -0.24077,0.73025 -0.36248,1.56633 -0.36248,2.50825 0,0.94192 0.13494,1.78858 0.40216,2.5109 0.26723,0.72231 0.63236,1.28058 1.09538,1.67481 0.46302,0.39158 0.97367,0.59002 1.53723,0.59002 0.56356,0 1.09802,-0.20373 1.54252,-0.61383 0.4445,-0.40746 0.78581,-0.97896 1.02658,-1.70657 0.24077,-0.73025 0.36248,-1.56633 0.36248,-2.50825 0,-0.94191 -0.13494,-1.78858 -0.40217,-2.51089 -0.26722,-0.72231 -0.63235,-1.28058 -1.09008,-1.67481 -0.46037,-0.39423 -0.97102,-0.59002 -1.53458,-0.59002 -0.56356,0 -1.10067,0.20372 -1.54781,0.61383"
       id="path64"
       style="stroke-width:0.264583;fill:#ffffff" />
    <path
       d="m 140.77937,41.05495 c -0.15346,0.0794 -0.25929,0.20637 -0.31485,0.38629 -0.0556,0.17727 -0.0847,0.4445 -0.0847,0.7964 v 4.12485 c 0,0.65617 -0.0423,1.21973 -0.12964,1.69069 -0.0873,0.47096 -0.23019,0.87577 -0.43127,1.21444 -0.23284,0.39158 -0.5715,0.70379 -1.01336,0.93397 -0.4445,0.23019 -0.94456,0.34396 -1.49754,0.34396 -1.00542,0 -1.77271,-0.24871 -2.30452,-0.74348 -0.27252,-0.254 -0.48154,-0.52387 -0.62706,-0.80698 -0.14552,-0.2831 -0.24607,-0.62706 -0.30427,-1.02658 -0.0582,-0.40217 -0.0873,-0.92339 -0.0873,-1.56633 v -4.30477 c 0,-0.34396 -0.0291,-0.59267 -0.0847,-0.75142 -0.0556,-0.1561 -0.15875,-0.26194 -0.30692,-0.32015 -0.15081,-0.0582 -0.38894,-0.0926 -0.71967,-0.10847 V 40.6422 c 0.38894,0.0265 0.97367,0.0397 1.75419,0.0397 0.73554,0 1.32027,-0.0132 1.7489,-0.0397 v 0.27517 c -0.33073,0.0132 -0.5715,0.0503 -0.71967,0.10847 -0.15081,0.0582 -0.25135,0.16405 -0.30692,0.32015 -0.0556,0.1561 -0.0847,0.40746 -0.0847,0.75142 v 4.54025 c 0,0.73289 0.0503,1.33879 0.14816,1.82298 0.0979,0.48154 0.30427,0.87048 0.61913,1.16416 0.31485,0.29369 0.78052,0.44186 1.397,0.44186 0.96837,0 1.64835,-0.30957 2.04258,-0.93134 0.39423,-0.62177 0.59002,-1.49489 0.59002,-2.61937 v -4.27831 c 0,-0.33867 -0.0397,-0.60061 -0.11641,-0.78317 -0.0794,-0.18256 -0.20638,-0.31485 -0.381,-0.39423 -0.17728,-0.0794 -0.42598,-0.127 -0.74613,-0.14023 v -0.27517 c 0.33073,0.0265 0.7964,0.0397 1.39965,0.0397 0.55033,0 0.97366,-0.0132 1.27264,-0.0397 v 0.27517 c -0.3175,0.0132 -0.55298,0.0582 -0.70644,0.13758"
       id="path65"
       style="stroke-width:0.264583;fill:#ffffff" />
    <path
       d="m 152.41046,46.08997 c 0.42862,0.4445 0.64293,0.97896 0.64293,1.60337 0,0.51859 -0.13229,0.97896 -0.39952,1.37848 -0.26458,0.40217 -0.64558,0.71438 -1.143,0.93927 -0.49477,0.2249 -1.0795,0.33867 -1.75418,0.33867 -0.18257,0 -0.50536,-0.008 -0.96573,-0.0212 -0.46038,-0.0132 -0.9234,-0.0212 -1.39171,-0.0212 -0.75142,0 -1.31763,0.0132 -1.70127,0.0397 V 50.0719 c 0.33073,-0.0132 0.56885,-0.0476 0.71966,-0.10583 0.15082,-0.0582 0.25136,-0.16405 0.30692,-0.32015 0.0556,-0.1561 0.0847,-0.40746 0.0847,-0.75142 v -6.80508 c 0,-0.34396 -0.0265,-0.59267 -0.0847,-0.74877 -0.0582,-0.15611 -0.15875,-0.26458 -0.30692,-0.32015 -0.15081,-0.0582 -0.38893,-0.0952 -0.71966,-0.10848 v -0.27516 c 0.37835,0.0265 0.93662,0.0397 1.67481,0.0397 0.35719,0 0.75142,-0.005 1.18269,-0.0132 0.43127,-0.008 0.7276,-0.0132 0.88635,-0.0132 0.62442,0 1.15358,0.09 1.5875,0.27252 0.43392,0.17991 0.75936,0.43391 0.97896,0.75671 0.2196,0.32279 0.32808,0.70114 0.32808,1.12977 0,0.52652 -0.16668,1.00012 -0.49741,1.41816 -0.33338,0.42069 -0.8599,0.74084 -1.58486,0.96573 v 0.0265 c 1.00806,0.13494 1.72773,0.42333 2.15636,0.86783 m -1.83621,-1.50018 c 0.29898,-0.40482 0.44979,-0.94986 0.44979,-1.62719 0,-0.67733 -0.15346,-1.19856 -0.45508,-1.53723 -0.30427,-0.33602 -0.79375,-0.50535 -1.4658,-0.50535 -0.28575,0 -0.50006,0.0317 -0.64293,0.0979 -0.14288,0.0635 -0.24077,0.17992 -0.29369,0.34396 -0.0529,0.16404 -0.0794,0.4101 -0.0794,0.73554 v 3.10092 h 0.9234 c 0.74613,0 1.26735,-0.20373 1.56633,-0.60854 m -2.413,5.04295 c 0.0529,0.15611 0.15082,0.26459 0.29369,0.3228 0.14288,0.0582 0.36248,0.0873 0.65617,0.0873 1.70921,0 2.56381,-0.80169 2.56381,-2.40506 0,-0.71967 -0.19579,-1.26471 -0.58473,-1.64042 -0.39158,-0.37571 -1.01071,-0.56356 -1.85737,-0.56356 h -1.15094 v 3.46868 c 0,0.33073 0.0265,0.57415 0.0794,0.73025"
       id="path66"
       style="stroke-width:0.264583;fill:#ffffff" />
    <path
       d="m 164.30877,41.03907 c 0.65352,0.39159 1.16152,0.96309 1.52135,1.71186 0.35984,0.74877 0.53975,1.63777 0.53975,2.66964 0,1.03188 -0.18521,1.90236 -0.55562,2.67759 -0.37042,0.77787 -0.88636,1.38112 -1.54781,1.80975 -0.66146,0.42862 -1.41288,0.64293 -2.2569,0.64293 -0.84402,0 -1.63248,-0.19579 -2.286,-0.59002 -0.65352,-0.39423 -1.16152,-0.96308 -1.52135,-1.71185 -0.35984,-0.74877 -0.53975,-1.63777 -0.53975,-2.66965 0,-1.03187 0.1852,-1.90235 0.55562,-2.67758 0.37042,-0.77787 0.88635,-1.37848 1.54781,-1.8071 0.66146,-0.42863 1.41288,-0.64294 2.2569,-0.64294 0.84402,0 1.63248,0.19579 2.286,0.59002 m -3.88673,0.26723 c -0.44715,0.40746 -0.7911,0.97896 -1.03188,1.70656 -0.24077,0.73025 -0.36247,1.56633 -0.36247,2.50825 0,0.94192 0.13493,1.78858 0.40216,2.5109 0.26723,0.72231 0.63236,1.28058 1.09538,1.67481 0.46302,0.39158 0.97366,0.59002 1.53723,0.59002 0.56356,0 1.09802,-0.20373 1.54252,-0.61383 0.4445,-0.40746 0.78581,-0.97896 1.02923,-1.70657 0.24077,-0.73025 0.36248,-1.56633 0.36248,-2.50825 0,-0.94191 -0.13494,-1.78858 -0.40217,-2.51089 -0.26723,-0.72231 -0.63236,-1.28058 -1.09008,-1.67481 -0.46038,-0.39423 -0.97103,-0.59002 -1.53459,-0.59002 -0.56356,0 -1.10066,0.20372 -1.54781,0.61383"
       id="path67"
       style="stroke-width:0.264583;fill:#ffffff" />
    <path
       d="m 178.673,50.33918 c -0.20902,0.13758 -0.48684,0.20637 -0.83079,0.20637 -0.37571,0 -0.68263,-0.10848 -0.9234,-0.32808 -0.24077,-0.2196 -0.42333,-0.6059 -0.54769,-1.15888 l -0.30162,-1.36525 c -0.10584,-0.47625 -0.20902,-0.84402 -0.30427,-1.10066 -0.0953,-0.25665 -0.24077,-0.46302 -0.43657,-0.61648 -0.19314,-0.15346 -0.46302,-0.23019 -0.80697,-0.23019 h -1.30705 v 3.15383 c 0,0.34396 0.0291,0.59267 0.0847,0.75142 0.0556,0.15611 0.15875,0.26458 0.30692,0.32015 0.15081,0.0582 0.38893,0.0952 0.71966,0.10583 v 0.27517 c -0.42068,-0.0265 -1.00012,-0.0397 -1.74095,-0.0397 -0.78582,0 -1.37055,0.0132 -1.75419,0.0397 v -0.27517 c 0.33073,-0.0132 0.5715,-0.0476 0.71966,-0.10583 0.15082,-0.0582 0.25136,-0.16404 0.30692,-0.32015 0.0556,-0.1561 0.0847,-0.40746 0.0847,-0.75142 v -6.80243 c 0,-0.34396 -0.0265,-0.59267 -0.0847,-0.74877 -0.0582,-0.15611 -0.15875,-0.26459 -0.30692,-0.32015 -0.15081,-0.0582 -0.38893,-0.0952 -0.71966,-0.10848 v -0.27517 c 0.38364,0.0265 0.94191,0.0397 1.67481,0.0397 0.35719,0 0.75142,-0.005 1.18269,-0.0132 0.43127,-0.008 0.7276,-0.0132 0.88635,-0.0132 0.71438,0 1.31763,0.10319 1.81504,0.31221 0.49477,0.20638 0.86784,0.49213 1.11919,0.84931 0.24871,0.35984 0.37571,0.7673 0.37571,1.22238 0,0.35719 -0.0847,0.71702 -0.25135,1.08215 -0.16669,0.36512 -0.4498,0.69056 -0.84932,0.97895 -0.39952,0.2884 -0.92075,0.48155 -1.56368,0.57944 l 0.16668,0.0265 c 0.41011,0.0661 0.73819,0.16933 0.98425,0.30427 0.24607,0.13758 0.43921,0.32279 0.58473,0.55827 0.14552,0.23813 0.26194,0.55033 0.3519,0.94456 l 0.34131,1.39965 c 0.0582,0.28046 0.11642,0.50006 0.17727,0.65881 0.0609,0.15875 0.13229,0.27517 0.21431,0.3519 0.082,0.0767 0.18521,0.11377 0.31221,0.11377 0.15081,0 0.27781,-0.0397 0.37571,-0.11642 0.0979,-0.0767 0.22225,-0.21166 0.37571,-0.40481 l 0.20637,0.15346 c -0.21431,0.30691 -0.42598,0.53181 -0.635,0.66939 m -3.09033,-5.16466 c 0.34925,-0.19579 0.59002,-0.46038 0.72231,-0.79111 0.13494,-0.33073 0.20109,-0.7276 0.20109,-1.19062 0,-0.74877 -0.17727,-1.31763 -0.53711,-1.70127 -0.35719,-0.38365 -0.93662,-0.57679 -1.74096,-0.57679 -0.28575,0 -0.50006,0.0317 -0.64293,0.0979 -0.14288,0.0635 -0.24077,0.17992 -0.29369,0.34396 -0.0529,0.16404 -0.0794,0.4101 -0.0794,0.73554 v 3.37608 h 0.9234 c 0.61648,0 1.09802,-0.0979 1.44727,-0.29368"
       id="path68"
       style="stroke-width:0.264583;fill:#ffffff" />
    <path
       class="st1"
       d="m 92.421478,0.43082741 c 0.02117,0.03175 0.1905,0.0344 0.256646,0.140229 0.470958,0.74083299 0.224896,0.99747899 0.3175,1.76741699 0.02646,0.227541 0.410104,1.93675 0.468312,2.024062 0.08202,0.121709 0.693209,0.227542 0.732896,0.709088 0.02381,0.28839 -0.301625,1.50547 -0.428625,1.83885 -0.306917,0.81492 -1.3335,1.55046 -1.240896,2.37596 0.0344,0.29898 0.28575,0.52123 0.314854,0.9128096 0.116417,1.619251 -0.85725,1.352021 -2.024062,1.703921 -0.743479,-0.11642 -0.957792,-0.941921 -1.563688,-1.143001 -0.140229,-0.0476 -0.534458,-0.14817 -0.49477,0.11641 0.24077,-0.008 0.36777,0.16934 0.531812,0.296341 0.240771,0.18785 1.172104,0.97366 1.386417,1.02923 0.547687,0.14552 1.471083,-0.34396 1.971146,0.0635 0.375708,0.30691 0.595312,2.11666 1.674812,2.09814 0.06085,0.0847 0.03969,0.78052 0.01323,0.95779 -0.08467,0.55563 -0.616479,1.3679 -0.881062,1.83621 -0.415396,0.740836 0.05027,1.317626 0.113771,2.066396 -0.45773,0.59796 -0.910167,1.23031 -1.317625,1.86266 -0.187855,0.29105 -0.306917,0.78317 -0.470959,1.00278 -0.28575,0.38629 -0.859896,0.46566 -1.031875,1.26735 -0.209021,0.98425 0.354542,1.24883 0.428625,1.92352 0.06879,0.61119 0.05821,3.47663 -0.161396,3.89731 l -1.169458,0.60061 c -0.08996,0.381 -0.923396,0.94456 -0.939271,1.24618 -0.0053,0.0714 0.161396,0.2884 0.381,0.0767 0.164042,-0.15875 0.381,-0.55298 0.568854,-0.70379 0.230188,-0.18256 0.605896,-0.51594 0.746125,-0.61912 0.116417,-0.0847 0.36248,-0.0238 0.492125,-0.18521 0.206375,-0.25665 0.455084,-1.55046 0.597959,-1.97115 0.07408,-0.21696 0.298979,-0.37306 0.34925,-0.55562 0.127,-0.45773 -0.0291,-1.99496 -0.119063,-2.53471 -0.06879,-0.40746 -0.756708,-0.6694 -0.386291,-1.29381 0.354541,-0.17727 0.960437,-0.44715 1.211791,-0.74877 0.238125,-0.28575 0.275167,-0.87048 0.619125,-1.34144 0.254,-0.34396 0.957792,-0.90223 1.090084,-1.09538 0.04233,-0.0635 0.378354,-1.21179 0.4445,-1.44462 0.3175,-1.105956 -0.150813,-2.354786 1.524,-1.825626 0.198437,0.47361 0.24077,1.000126 0.402166,1.486956 0.100542,0.30163 0.447146,0.71173 0.465667,0.97631 0.05821,0.9578 -0.6985,2.05053 -0.529167,3.31788 0.121708,0.91281 0.833438,1.41552 1.013354,2.00554 0.198438,0.65352 0.127,1.52136 0.22225,2.1934 0.08202,0.56356 0.542397,1.2065 0.566207,1.55575 0.0291,0.42862 -0.380998,1.03981 -0.444498,1.51077 -0.105834,0.78846 0.08731,1.54781 0.150808,2.32304 l 0.4445,0.008 -0.005,2.25954 c -0.936621,0.0291 -2.005537,0.28839 -2.93687,0.14817 -0.248709,-0.0371 -0.428625,-0.20903 -0.64823,-0.2593 -1.579562,-0.35983 -2.868083,-0.26723 -4.47675,-0.0264 -1.039812,0.1561 -1.947333,0.71702 -3.010958,0.59795 -0.399521,-0.62441 -0.328083,-1.78858 -0.05556,-2.46062 0.46302,-1.13771 1.108604,-1.64571 1.177395,-3.048 0.02117,-0.4154 -0.150812,-0.95779 -0.124354,-1.19592 0.02646,-0.2196 0.277813,-0.4101 0.277813,-0.77523 0,-0.30956 -0.187854,-0.61912 -0.338667,-0.88106 -0.502708,-0.88371 -0.912812,-0.86519 -1.150937,-2.17223 -0.1905,-1.03981 0.280458,-0.88106 0.785812,-1.41287 0.568854,-0.59796 0.309563,-1.02659 0.402167,-1.71186 0.06879,-0.50271 0.378354,-0.9816 0.436562,-1.37583 0.04233,-0.2884 0.161396,-1.26206 0.150813,-1.49225 -0.03175,-0.780516 -1.156229,-1.658936 -1.198563,-2.743726 -0.01852,-0.47625 0.312209,-1.31233 0.291042,-1.78329 -0.08996,-1.91294 -0.986896,-3.201461 -0.891646,-5.2996106 0.05292,-1.16681 -0.740833,-1.01335 -0.889,-1.8415 -0.04498,-0.2487 0.140229,-0.56356 0.142875,-0.87312 0,-0.36513 -0.179917,-0.69056 -0.179917,-1.055689 0,-0.836083 0.381,-0.851958 -0.111125,-1.838854 -0.309562,-0.624416 -0.84402,-1.071562 -0.933979,-1.860021 0.111125,-0.09525 2.275417,0.4445 2.783417,0.42598 0.209021,-0.0079 0.997479,-0.127 1.143,-0.198438 0.351896,-0.171979 1.100667,-0.98954199 1.468437,-1.09802099 0.219605,-0.0635 1.293813,-0.230187 1.463146,-0.177271 l 0.164042,0.142875 c 0.03969,0.07144 -0.06879,0.216959 -0.0344,0.269875"
       id="path69"
       style="fill:#edb84f;stroke-width:0.264583" />
    <path
       class="st1"
       d="m 99.911828,2.5898274 c 0.455092,0.989542 0.338672,2.145771 0.460382,3.225266 -0.0159,0.46832 -0.457732,0.67734 -0.664102,0.99484 -0.54505,0.83079 -0.66146,1.89971 -0.94192,2.83104 -0.0794,0.26723 -0.30692,0.4762496 -0.34925,0.7143696 -0.13758,0.830801 0.69321,1.555751 0.75406,2.275421 0.0529,0.64029 -0.39158,1.48961 0.008,2.24631 -0.24606,0.48155 -0.77523,1.51607 -0.88635,1.99232 -0.103191,0.44714 0.11906,0.73554 0.0873,1.005406 -0.0344,0.30957 -0.500065,0.79111 -0.537107,1.10067 -0.0344,0.29369 0.359834,0.94985 0.412747,1.34408 0.0714,0.55034 0,1.23032 0.008,1.80446 0.005,0.32544 0.21167,0.59796 -0.005,0.97102 -0.587372,0.15875 -1.127122,-0.45244 -1.158872,-0.99748 -0.06085,-1.03981 0.513292,-2.02671 0.555625,-3.01096 0.01852,-0.42333 -0.259292,-1.10595 -0.174625,-1.616596 -0.04498,-0.53446 -0.881062,-0.68527 -1.000125,-1.11125 -0.07673,-0.27252 0.01852,-0.5715 -0.05556,-0.84931 -0.08467,-0.31486 -0.645584,-1.01071 -0.804334,-1.4605 -0.108479,-0.30692 -0.103187,-0.96838 -0.261937,-1.17211 -0.161396,-0.20902 -1.018646,-0.46037 -1.158875,-0.88635 0.216958,-0.50271 0.724958,-0.971021 0.423333,-1.547811 l -0.732896,-0.24342 c 0.177271,-0.3122096 0.579438,-0.2619396 0.79375,-0.3836496 0.283105,-0.16404 0.703792,-0.93133 0.899584,-1.24618 0.246062,-0.39952 0.497416,-0.92075 0.743479,-1.36525 0.103187,-0.18786 0.338667,-0.30692 0.399521,-0.50271 0.256645,-0.80963 -0.01058,-1.740959 0.01587,-2.537355 0.02646,-0.85725 0.886354,-0.566209 1.418166,-0.709084 0.394226,-0.105833 1.320276,-1.166812 1.754186,-0.859895"
       id="path70"
       style="fill:#edb84f;stroke-width:0.264583" />
  </g>
</svg>
