<?xml version="1.0" encoding="UTF-8" standalone="no"?>
<!-- Created with Inkscape (http://www.inkscape.org/) -->

<svg
   width="200mm"
   height="60mm"
   viewBox="0 0 200 60"
   version="1.1"
   id="svg1"
   inkscape:version="1.4.3 (0d15f75, 2025-12-25)"
   sodipodi:docname="web_logo_main.svg"
   xmlns:inkscape="http://www.inkscape.org/namespaces/inkscape"
   xmlns:sodipodi="http://sodipodi.sourceforge.net/DTD/sodipodi-0.dtd"
   xmlns="http://www.w3.org/2000/svg"
   xmlns:svg="http://www.w3.org/2000/svg">
  <sodipodi:namedview
     id="namedview1"
     pagecolor="#ffffff"
     bordercolor="#000000"
     borderopacity="0.25"
     inkscape:showpageshadow="2"
     inkscape:pageopacity="0.0"
     inkscape:pagecheckerboard="0"
     inkscape:deskcolor="#d1d1d1"
     inkscape:document-units="mm"
     inkscape:zoom="1.6718294"
     inkscape:cx="355.89756"
     inkscape:cy="244.64219"
     inkscape:window-width="1918"
     inkscape:window-height="1520"
     inkscape:window-x="1"
     inkscape:window-y="0"
     inkscape:window-maximized="0"
     inkscape:current-layer="layer2" />
  <defs
     id="defs1">
    <filter
       y="-0.054594752"
       height="1.1091895"
       x="-0.1275465"
       width="1.255093"
       inkscape:menu-tooltip="Aquarelle paper effect which can be used for pictures as for objects"
       inkscape:menu="Textures"
       inkscape:label="Drop Shadow"
       style="color-interpolation-filters:sRGB;"
       id="filter1210">
      <feTurbulence
         type="fractalNoise"
         baseFrequency="0.04"
         numOctaves="5"
         seed="0"
         result="result4"
         id="feTurbulence1209" />
      <feDisplacementMap
         in="SourceGraphic"
         in2="result4"
         yChannelSelector="G"
         xChannelSelector="R"
         scale="10"
         result="result3"
         id="feDisplacementMap1209" />
      <feDiffuseLighting
         lighting-color="rgb(233,230,215)"
         diffuseConstant="1"
         surfaceScale="2"
         result="result1"
         in="result4"
         id="feDiffuseLighting1209">
        <feDistantLight
           azimuth="235"
           elevation="40"
           id="feDistantLight1209" />
      </feDiffuseLighting>
      <feComposite
         operator="in"
         in="result3"
         in2="result1"
         result="result2"
         id="feComposite1209" />
      <feComposite
         in2="result1"
         result="result5"
         operator="arithmetic"
         k1="1.7"
         id="feComposite1210" />
      <feBlend
         in="result5"
         in2="result3"
         mode="normal"
         id="feBlend1210"
         result="fbSourceGraphic" />
      <feColorMatrix
         result="fbSourceGraphicAlpha"
         in="fbSourceGraphic"
         values="0 0 0 -1 0 0 0 0 -1 0 0 0 0 -1 0 0 0 0 1 0"
         id="feColorMatrix2482" />
      <feFlood
         id="feFlood2482"
         result="flood"
         in="fbSourceGraphic"
         flood-opacity="0.498039"
         flood-color="rgb(0,0,0)" />
      <feGaussianBlur
         id="feGaussianBlur2482"
         result="blur"
         in="fbSourceGraphic"
         stdDeviation="3.000000" />
      <feOffset
         id="feOffset2482"
         result="offset"
         in="blur"
         dx="0.000000"
         dy="0.000000" />
      <feComposite
         id="feComposite2482"
         result="comp1"
         operator="in"
         in="flood"
         in2="offset" />
      <feComposite
         id="feComposite2483"
         result="comp2"
         operator="over"
         in="fbSourceGraphic"
         in2="comp1" />
    </filter>
    <filter
       style="color-interpolation-filters:sRGB;"
       inkscape:label="Drop Shadow"
       id="filter2436"
       x="-0.081638612"
       y="-0.073639104"
       width="1.1632772"
       height="1.1472782">
      <feFlood
         result="flood"
         in="SourceGraphic"
         flood-opacity="0.498039"
         flood-color="rgb(0,0,0)"
         id="feFlood2435" />
      <feGaussianBlur
         result="blur"
         in="SourceGraphic"
         stdDeviation="1.000000"
         id="feGaussianBlur2435" />
      <feOffset
         result="offset"
         in="blur"
         dx="0.000000"
         dy="0.000000"
         id="feOffset2435" />
      <feComposite
         result="comp1"
         operator="in"
         in="flood"
         in2="offset"
         id="feComposite2435" />
      <feComposite
         result="comp2"
         operator="over"
         in="SourceGraphic"
         in2="comp1"
         id="feComposite2436" />
    </filter>
    <filter
       style="color-interpolation-filters:sRGB;"
       inkscape:label="Drop Shadow"
       id="filter2438"
       x="-0.2059688"
       y="-0.074144741"
       width="1.4119376"
       height="1.1482895">
      <feFlood
         result="flood"
         in="SourceGraphic"
         flood-opacity="0.498039"
         flood-color="rgb(0,0,0)"
         id="feFlood2436" />
      <feGaussianBlur
         result="blur"
         in="SourceGraphic"
         stdDeviation="1.000000"
         id="feGaussianBlur2436" />
      <feOffset
         result="offset"
         in="blur"
         dx="0.000000"
         dy="0.000000"
         id="feOffset2436" />
      <feComposite
         result="comp1"
         operator="in"
         in="flood"
         in2="offset"
         id="feComposite2437" />
      <feComposite
         result="comp2"
         operator="over"
         in="SourceGraphic"
         in2="comp1"
         id="feComposite2438" />
    </filter>
    <filter
       style="color-interpolation-filters:sRGB;"
       inkscape:label="Drop Shadow"
       id="filter2440"
       x="-0.093254513"
       y="-0.07415686"
       width="1.186509"
       height="1.1483137">
      <feFlood
         result="flood"
         in="SourceGraphic"
         flood-opacity="0.498039"
         flood-color="rgb(0,0,0)"
         id="feFlood2438" />
      <feGaussianBlur
         result="blur"
         in="SourceGraphic"
         stdDeviation="1.000000"
         id="feGaussianBlur2438" />
      <feOffset
         result="offset"
         in="blur"
         dx="0.000000"
         dy="0.000000"
         id="feOffset2438" />
      <feComposite
         result="comp1"
         operator="in"
         in="flood"
         in2="offset"
         id="feComposite2439" />
      <feComposite
         result="comp2"
         operator="over"
         in="SourceGraphic"
         in2="comp1"
         id="feComposite2440" />
    </filter>
    <filter
       style="color-interpolation-filters:sRGB;"
       inkscape:label="Drop Shadow"
       id="filter2442"
       x="-0.083617866"
       y="-0.072694869"
       width="1.1672357"
       height="1.1453897">
      <feFlood
         result="flood"
         in="SourceGraphic"
         flood-opacity="0.498039"
         flood-color="rgb(0,0,0)"
         id="feFlood2440" />
      <feGaussianBlur
         result="blur"
         in="SourceGraphic"
         stdDeviation="1.000000"
         id="feGaussianBlur2440" />
      <feOffset
         result="offset"
         in="blur"
         dx="0.000000"
         dy="0.000000"
         id="feOffset2440" />
      <feComposite
         result="comp1"
         operator="in"
         in="flood"
         in2="offset"
         id="feComposite2441" />
      <feComposite
         result="comp2"
         operator="over"
         in="SourceGraphic"
         in2="comp1"
         id="feComposite2442" />
    </filter>
    <filter
       style="color-interpolation-filters:sRGB;"
       inkscape:label="Drop Shadow"
       id="filter2444"
       x="-0.066697533"
       y="-0.073645092"
       width="1.1333951"
       height="1.1472902">
      <feFlood
         result="flood"
         in="SourceGraphic"
         flood-opacity="0.498039"
         flood-color="rgb(0,0,0)"
         id="feFlood2442" />
      <feGaussianBlur
         result="blur"
         in="SourceGraphic"
         stdDeviation="1.000000"
         id="feGaussianBlur2442" />
      <feOffset
         result="offset"
         in="blur"
         dx="0.000000"
         dy="0.000000"
         id="feOffset2442" />
      <feComposite
         result="comp1"
         operator="in"
         in="flood"
         in2="offset"
         id="feComposite2443" />
      <feComposite
         result="comp2"
         operator="over"
         in="SourceGraphic"
         in2="comp1"
         id="feComposite2444" />
    </filter>
    <filter
       style="color-interpolation-filters:sRGB;"
       inkscape:label="Drop Shadow"
       id="filter2446"
       x="-0.27961981"
       y="-0.24716252"
       width="1.5592396"
       height="1.494325">
      <feFlood
         result="flood"
         in="SourceGraphic"
         flood-opacity="0.498039"
         flood-color="rgb(0,0,0)"
         id="feFlood2444" />
      <feGaussianBlur
         result="blur"
         in="SourceGraphic"
         stdDeviation="1.000000"
         id="feGaussianBlur2444" />
      <feOffset
         result="offset"
         in="blur"
         dx="0.000000"
         dy="0.000000"
         id="feOffset2444" />
      <feComposite
         result="comp1"
         operator="in"
         in="flood"
         in2="offset"
         id="feComposite2445" />
      <feComposite
         result="comp2"
         operator="over"
         in="SourceGraphic"
         in2="comp1"
         id="feComposite2446" />
    </filter>
    <filter
       style="color-interpolation-filters:sRGB;"
       inkscape:label="Drop Shadow"
       id="filter2448"
       x="-0.68666659"
       y="-0.24736479"
       width="2.3733332"
       height="1.4947296">
      <feFlood
         result="flood"
         in="SourceGraphic"
         flood-opacity="0.498039"
         flood-color="rgb(0,0,0)"
         id="feFlood2446" />
      <feGaussianBlur
         result="blur"
         in="SourceGraphic"
         stdDeviation="1.000000"
         id="feGaussianBlur2446" />
      <feOffset
         result="offset"
         in="blur"
         dx="0.000000"
         dy="0.000000"
         id="feOffset2446" />
      <feComposite
         result="comp1"
         operator="in"
         in="flood"
         in2="offset"
         id="feComposite2447" />
      <feComposite
         result="comp2"
         operator="over"
         in="SourceGraphic"
         in2="comp1"
         id="feComposite2448" />
    </filter>
    <filter
       style="color-interpolation-filters:sRGB;"
       inkscape:label="Drop Shadow"
       id="filter2450"
       x="-0.27215322"
       y="-0.24535763"
       width="1.5443064"
       height="1.4907153">
      <feFlood
         result="flood"
         in="SourceGraphic"
         flood-opacity="0.498039"
         flood-color="rgb(0,0,0)"
         id="feFlood2448" />
      <feGaussianBlur
         result="blur"
         in="SourceGraphic"
         stdDeviation="1.000000"
         id="feGaussianBlur2448" />
      <feOffset
         result="offset"
         in="blur"
         dx="0.000000"
         dy="0.000000"
         id="feOffset2448" />
      <feComposite
         result="comp1"
         operator="in"
         in="flood"
         in2="offset"
         id="feComposite2449" />
      <feComposite
         result="comp2"
         operator="over"
         in="SourceGraphic"
         in2="comp1"
         id="feComposite2450" />
    </filter>
    <filter
       style="color-interpolation-filters:sRGB;"
       inkscape:label="Drop Shadow"
       id="filter2452"
       x="-0.27207158"
       y="-0.24549039"
       width="1.5441432"
       height="1.4909808">
      <feFlood
         result="flood"
         in="SourceGraphic"
         flood-opacity="0.498039"
         flood-color="rgb(0,0,0)"
         id="feFlood2450" />
      <feGaussianBlur
         result="blur"
         in="SourceGraphic"
         stdDeviation="1.000000"
         id="feGaussianBlur2450" />
      <feOffset
         result="offset"
         in="blur"
         dx="0.000000"
         dy="0.000000"
         id="feOffset2450" />
      <feComposite
         result="comp1"
         operator="in"
         in="flood"
         in2="offset"
         id="feComposite2451" />
      <feComposite
         result="comp2"
         operator="over"
         in="SourceGraphic"
         in2="comp1"
         id="feComposite2452" />
    </filter>
    <filter
       style="color-interpolation-filters:sRGB;"
       inkscape:label="Drop Shadow"
       id="filter2454"
       x="-0.27961981"
       y="-0.24716252"
       width="1.5592396"
       height="1.494325">
      <feFlood
         result="flood"
         in="SourceGraphic"
         flood-opacity="0.498039"
         flood-color="rgb(0,0,0)"
         id="feFlood2452" />
      <feGaussianBlur
         result="blur"
         in="SourceGraphic"
         stdDeviation="1.000000"
         id="feGaussianBlur2452" />
      <feOffset
         result="offset"
         in="blur"
         dx="0.000000"
         dy="0.000000"
         id="feOffset2452" />
      <feComposite
         result="comp1"
         operator="in"
         in="flood"
         in2="offset"
         id="feComposite2453" />
      <feComposite
         result="comp2"
         operator="over"
         in="SourceGraphic"
         in2="comp1"
         id="feComposite2454" />
    </filter>
    <filter
       style="color-interpolation-filters:sRGB;"
       inkscape:label="Drop Shadow"
       id="filter2456"
       x="-0.3372069"
       y="-0.24736479"
       width="1.6744138"
       height="1.4947296">
      <feFlood
         result="flood"
         in="SourceGraphic"
         flood-opacity="0.498039"
         flood-color="rgb(0,0,0)"
         id="feFlood2454" />
      <feGaussianBlur
         result="blur"
         in="SourceGraphic"
         stdDeviation="1.000000"
         id="feGaussianBlur2454" />
      <feOffset
         result="offset"
         in="blur"
         dx="0.000000"
         dy="0.000000"
         id="feOffset2454" />
      <feComposite
         result="comp1"
         operator="in"
         in="flood"
         in2="offset"
         id="feComposite2455" />
      <feComposite
         result="comp2"
         operator="over"
         in="SourceGraphic"
         in2="comp1"
         id="feComposite2456" />
    </filter>
    <filter
       style="color-interpolation-filters:sRGB;"
       inkscape:label="Drop Shadow"
       id="filter2458"
       x="-0.3372069"
       y="-0.24736479"
       width="1.6744138"
       height="1.4947296">
      <feFlood
         result="flood"
         in="SourceGraphic"
         flood-opacity="0.498039"
         flood-color="rgb(0,0,0)"
         id="feFlood2456" />
      <feGaussianBlur
         result="blur"
         in="SourceGraphic"
         stdDeviation="1.000000"
         id="feGaussianBlur2456" />
      <feOffset
         result="offset"
         in="blur"
         dx="0.000000"
         dy="0.000000"
         id="feOffset2456" />
      <feComposite
         result="comp1"
         operator="in"
         in="flood"
         in2="offset"
         id="feComposite2457" />
      <feComposite
         result="comp2"
         operator="over"
         in="SourceGraphic"
         in2="comp1"
         id="feComposite2458" />
    </filter>
    <filter
       style="color-interpolation-filters:sRGB;"
       inkscape:label="Drop Shadow"
       id="filter2460"
       x="-0.27867612"
       y="-0.2455567"
       width="1.5573522"
       height="1.4911134">
      <feFlood
         result="flood"
         in="SourceGraphic"
         flood-opacity="0.498039"
         flood-color="rgb(0,0,0)"
         id="feFlood2458" />
      <feGaussianBlur
         result="blur"
         in="SourceGraphic"
         stdDeviation="1.000000"
         id="feGaussianBlur2458" />
      <feOffset
         result="offset"
         in="blur"
         dx="0.000000"
         dy="0.000000"
         id="feOffset2458" />
      <feComposite
         result="comp1"
         operator="in"
         in="flood"
         in2="offset"
         id="feComposite2459" />
      <feComposite
         result="comp2"
         operator="over"
         in="SourceGraphic"
         in2="comp1"
         id="feComposite2460" />
    </filter>
    <filter
       style="color-interpolation-filters:sRGB;"
       inkscape:label="Drop Shadow"
       id="filter2462"
       x="-0.58109129"
       y="-0.18718252"
       width="2.1621826"
       height="1.374365">
      <feFlood
         result="flood"
         in="SourceGraphic"
         flood-opacity="0.498039"
         flood-color="rgb(0,0,0)"
         id="feFlood2460" />
      <feGaussianBlur
         result="blur"
         in="SourceGraphic"
         stdDeviation="1.000000"
         id="feGaussianBlur2460" />
      <feOffset
         result="offset"
         in="blur"
         dx="0.000000"
         dy="0.000000"
         id="feOffset2460" />
      <feComposite
         result="comp1"
         operator="in"
         in="flood"
         in2="offset"
         id="feComposite2461" />
      <feComposite
         result="comp2"
         operator="over"
         in="SourceGraphic"
         in2="comp1"
         id="feComposite2462" />
    </filter>
    <filter
       style="color-interpolation-filters:sRGB;"
       inkscape:label="Drop Shadow"
       id="filter2464"
       x="-0.4089659"
       y="-0.23851951"
       width="1.8179318"
       height="1.477039">
      <feFlood
         result="flood"
         in="SourceGraphic"
         flood-opacity="0.498039"
         flood-color="rgb(0,0,0)"
         id="feFlood2462" />
      <feGaussianBlur
         result="blur"
         in="SourceGraphic"
         stdDeviation="1.000000"
         id="feGaussianBlur2462" />
      <feOffset
         result="offset"
         in="blur"
         dx="0.000000"
         dy="0.000000"
         id="feOffset2462" />
      <feComposite
         result="comp1"
         operator="in"
         in="flood"
         in2="offset"
         id="feComposite2463" />
      <feComposite
         result="comp2"
         operator="over"
         in="SourceGraphic"
         in2="comp1"
         id="feComposite2464" />
    </filter>
    <filter
       style="color-interpolation-filters:sRGB;"
       inkscape:label="Drop Shadow"
       id="filter2466"
       x="-0.27562636"
       y="-0.237644"
       width="1.5512527"
       height="1.475288">
      <feFlood
         result="flood"
         in="SourceGraphic"
         flood-opacity="0.498039"
         flood-color="rgb(0,0,0)"
         id="feFlood2464" />
      <feGaussianBlur
         result="blur"
         in="SourceGraphic"
         stdDeviation="1.000000"
         id="feGaussianBlur2464" />
      <feOffset
         result="offset"
         in="blur"
         dx="0.000000"
         dy="0.000000"
         id="feOffset2464" />
      <feComposite
         result="comp1"
         operator="in"
         in="flood"
         in2="offset"
         id="feComposite2465" />
      <feComposite
         result="comp2"
         operator="over"
         in="SourceGraphic"
         in2="comp1"
         id="feComposite2466" />
    </filter>
    <filter
       style="color-interpolation-filters:sRGB;"
       inkscape:label="Drop Shadow"
       id="filter2468"
       x="-0.27850466"
       y="-0.24234199"
       width="1.5570093"
       height="1.484684">
      <feFlood
         result="flood"
         in="SourceGraphic"
         flood-opacity="0.498039"
         flood-color="rgb(0,0,0)"
         id="feFlood2466" />
      <feGaussianBlur
         result="blur"
         in="SourceGraphic"
         stdDeviation="1.000000"
         id="feGaussianBlur2466" />
      <feOffset
         result="offset"
         in="blur"
         dx="0.000000"
         dy="0.000000"
         id="feOffset2466" />
      <feComposite
         result="comp1"
         operator="in"
         in="flood"
         in2="offset"
         id="feComposite2467" />
      <feComposite
         result="comp2"
         operator="over"
         in="SourceGraphic"
         in2="comp1"
         id="feComposite2468" />
    </filter>
    <filter
       style="color-interpolation-filters:sRGB;"
       inkscape:label="Drop Shadow"
       id="filter2470"
       x="-0.3264076"
       y="-0.24729597"
       width="1.6528152"
       height="1.4945919">
      <feFlood
         result="flood"
         in="SourceGraphic"
         flood-opacity="0.498039"
         flood-color="rgb(0,0,0)"
         id="feFlood2468" />
      <feGaussianBlur
         result="blur"
         in="SourceGraphic"
         stdDeviation="1.000000"
         id="feGaussianBlur2468" />
      <feOffset
         result="offset"
         in="blur"
         dx="0.000000"
         dy="0.000000"
         id="feOffset2468" />
      <feComposite
         result="comp1"
         operator="in"
         in="flood"
         in2="offset"
         id="feComposite2469" />
      <feComposite
         result="comp2"
         operator="over"
         in="SourceGraphic"
         in2="comp1"
         id="feComposite2470" />
    </filter>
    <filter
       style="color-interpolation-filters:sRGB;"
       inkscape:label="Drop Shadow"
       id="filter2472"
       x="-0.27562636"
       y="-0.237644"
       width="1.5512527"
       height="1.475288">
      <feFlood
         result="flood"
         in="SourceGraphic"
         flood-opacity="0.498039"
         flood-color="rgb(0,0,0)"
         id="feFlood2470" />
      <feGaussianBlur
         result="blur"
         in="SourceGraphic"
         stdDeviation="1.000000"
         id="feGaussianBlur2470" />
      <feOffset
         result="offset"
         in="blur"
         dx="0.000000"
         dy="0.000000"
         id="feOffset2470" />
      <feComposite
         result="comp1"
         operator="in"
         in="flood"
         in2="offset"
         id="feComposite2471" />
      <feComposite
         result="comp2"
         operator="over"
         in="SourceGraphic"
         in2="comp1"
         id="feComposite2472" />
    </filter>
    <filter
       style="color-interpolation-filters:sRGB;"
       inkscape:label="Drop Shadow"
       id="filter2474"
       x="-0.28302221"
       y="-0.24247151"
       width="1.5660444"
       height="1.484943">
      <feFlood
         result="flood"
         in="SourceGraphic"
         flood-opacity="0.498039"
         flood-color="rgb(0,0,0)"
         id="feFlood2472" />
      <feGaussianBlur
         result="blur"
         in="SourceGraphic"
         stdDeviation="1.000000"
         id="feGaussianBlur2472" />
      <feOffset
         result="offset"
         in="blur"
         dx="0.000000"
         dy="0.000000"
         id="feOffset2472" />
      <feComposite
         result="comp1"
         operator="in"
         in="flood"
         in2="offset"
         id="feComposite2473" />
      <feComposite
         result="comp2"
         operator="over"
         in="SourceGraphic"
         in2="comp1"
         id="feComposite2474" />
    </filter>
  </defs>
  <g
     inkscape:label="pozadi"
     inkscape:groupmode="layer"
     id="layer1"
     style="display:none">
    <rect
       class="st2"
       x="-0.23165497"
       y="0.092677481"
       width="199.98273"
       height="59.884193"
       id="rect1"
       style="fill:#124551;stroke-width:0.587193" />
  </g>
  <g
     inkscape:groupmode="layer"
     id="layer2"
     inkscape:label="text">
    <path
       d="m 36.495524,4.0760621 c 1.367895,0 2.513541,-0.045 3.436937,-0.13494 v 0.91546 c -1.531938,0.34131 -2.738437,1.66688 -3.616854,3.97404 L 25.578815,36.532502 H 24.843274 L 13.683149,7.7828721 c -0.743479,-1.88912 -1.793875,-2.86544 -3.148542,-2.92364 v -0.91546 c 1.235604,0.09 2.865438,0.13494 4.8895,0.13494 2.619375,0 4.569354,-0.045 5.847292,-0.13494 v 0.91546 c -1.161521,0.045 -1.989667,0.1852 -2.489729,0.42333 -0.500063,0.23812 -0.748771,0.66146 -0.748771,1.27265 0,0.50535 0.177271,1.21972 0.534458,2.14312 l 8.281458,21.9657099 7.455959,-19.30929 c 0.611187,-1.5769199 0.915458,-2.8204599 0.915458,-3.7279799 0,-0.96838 -0.328083,-1.66423 -0.981604,-2.08756 -0.656167,-0.42334 -1.658938,-0.65088 -3.013604,-0.67998 v -0.91546 c 1.740958,0.09 3.497791,0.13494 5.267854,0.13494 z"
       id="path52"
       style="stroke-width:0.264583;fill:#ffffff;filter:url(#filter2436)" />
    <path
       d="m 54.51894,5.2164121 c -0.500063,0.19315 -0.841375,0.55034 -1.026583,1.07157 -0.185209,0.52123 -0.277813,1.35466 -0.277813,2.50031 V 31.468372 c 0,1.14565 0.0926,1.97908 0.277813,2.50031 0.185208,0.52123 0.529166,0.87842 1.026583,1.07157 0.497417,0.19314 1.299104,0.3122 2.399771,0.35718 v 0.91546 c -1.399646,-0.09 -3.33375,-0.13494 -5.804959,-0.13494 -2.619374,0 -4.569354,0.045 -5.847291,0.13494 v -0.91546 c 1.100667,-0.045 1.899708,-0.16404 2.399771,-0.35718 0.497416,-0.19315 0.841375,-0.55034 1.026583,-1.07157 0.185208,-0.52123 0.277813,-1.35466 0.277813,-2.50031 V 8.7882921 c 0,-1.14565 -0.0926,-1.97908 -0.277813,-2.50031 -0.185208,-0.52123 -0.529167,-0.87842 -1.026583,-1.07157 -0.500063,-0.19314 -1.299104,-0.3122 -2.399771,-0.35718 v -0.91546 c 1.264708,0.09 3.214687,0.13494 5.847291,0.13494 2.471209,0 4.405313,-0.045 5.804959,-0.13494 v 0.91546 c -1.100667,0.045 -1.902354,0.16404 -2.399771,0.35718 z"
       id="path53"
       style="stroke-width:0.264583;fill:#ffffff;filter:url(#filter2438)" />
    <path
       d="m 64.239731,9.7910621 c 0,-1.78594 -0.111125,-3.73592 -0.33602,-5.84729 2.529416,0.09 6.831541,0.13494 12.901083,0.13494 6.069541,0 10.305521,-0.045 12.834937,-0.13494 -0.209021,2.17223 -0.312208,4.12221 -0.312208,5.84729 0,1.5319399 0.04498,2.7834199 0.134937,3.7491499 h -1.050395 c -0.238125,-2.36538 -0.53975,-4.1195699 -0.904875,-5.2572799 -0.365125,-1.1377 -1.005417,-1.97114 -1.920875,-2.50031 -0.915459,-0.52916 -2.31775,-0.79375 -4.206875,-0.79375 h -2.4765 V 30.994772 c 0,1.26471 0.119062,2.19075 0.357187,2.77812 0.238125,0.58738 0.669396,0.99219 1.293813,1.21709 0.624416,0.22489 1.613958,0.35718 2.968625,0.40216 v 0.91546 c -1.606021,-0.09 -3.847042,-0.13494 -6.717771,-0.13494 -3.050646,0 -5.304896,0.045 -6.76275,0.13494 v -0.91546 c 1.354667,-0.045 2.344208,-0.17727 2.968625,-0.40216 0.624417,-0.2249 1.055687,-0.62971 1.293812,-1.21709 0.238125,-0.58737 0.357188,-1.51341 0.357188,-2.77812 V 4.9888721 h -2.4765 c -1.889125,0 -3.291417,0.26459 -4.206875,0.79375 -0.915458,0.52917 -1.55575,1.36261 -1.920875,2.50031 -0.365125,1.13771 -0.66675,2.8918999 -0.904875,5.2572799 h -1.050396 c 0.08996,-0.96838 0.134938,-2.21721 0.134938,-3.7491499 z"
       id="path54"
       style="stroke-width:0.264583;fill:#ffffff;filter:url(#filter2440)" />
    <path
       d="m 141.54833,5.3169621 c -0.51329,0.25929 -0.86254,0.68791 -1.0504,1.28322 -0.1852,0.59532 -0.27781,1.48167 -0.27781,2.65642 V 23.007002 c 0,2.1881 -0.14552,4.06664 -0.43656,5.63562 -0.29104,1.56898 -0.76994,2.921 -1.43933,4.05077 -0.77523,1.30969 -1.90236,2.34686 -3.38138,3.11415 -1.47902,0.76729 -3.14325,1.14829 -4.99004,1.14829 -3.34698,0 -5.90815,-0.8255 -7.67821,-2.4765 -0.90752,-0.84931 -1.60337,-1.7436 -2.08756,-2.69081 -0.48419,-0.94457 -0.82285,-2.08757 -1.016,-3.42636 C 118.99789,27.023372 118.9,25.282412 118.9,23.139292 V 8.7856421 c 0,-1.14564 -0.0926,-1.97908 -0.27781,-2.50031 -0.18521,-0.52123 -0.52917,-0.87842 -1.02659,-1.07156 -0.49741,-0.19315 -1.2991,-0.31221 -2.39977,-0.35719 v -0.91546 c 1.29381,0.09 3.24379,0.13494 5.84729,0.13494 2.45534,0 4.39738,-0.045 5.82613,-0.13494 v 0.91546 c -1.10067,0.045 -1.90236,0.16404 -2.39977,0.35719 -0.49742,0.19314 -0.84138,0.55033 -1.02659,1.07156 -0.1852,0.52123 -0.27781,1.35467 -0.27781,2.50031 V 23.919812 c 0,2.43946 0.16404,4.46352 0.49213,6.07219 0.32808,1.60602 1.016,2.90248 2.06375,3.88408 1.05039,0.9816 2.60085,1.47373 4.65402,1.47373 3.22791,0 5.49804,-1.03452 6.80773,-3.10356 1.30968,-2.06905 1.9632,-4.97682 1.9632,-8.72861 V 9.2539621 c 0,-1.12978 -0.12964,-2.00025 -0.39158,-2.61144 -0.25929,-0.61119 -0.68527,-1.0504 -1.27265,-1.31763 -0.58737,-0.26723 -1.41816,-0.42333 -2.48972,-0.46831 v -0.91546 c 1.10066,0.09 2.65641,0.13494 4.6646,0.13494 1.83092,0 3.24379,-0.045 4.24127,-0.13494 v 0.91546 c -1.05569,0.045 -1.8415,0.19844 -2.35479,0.45773 z"
       id="path55"
       style="stroke-width:0.264583;fill:#ffffff;filter:url(#filter2442)" />
    <path
       d="m 184.40554,5.2164121 c -0.49742,0.19315 -0.84138,0.55034 -1.02658,1.07157 -0.18521,0.52123 -0.27782,1.35466 -0.27782,2.50031 V 31.468372 c 0,1.14565 0.0926,1.97908 0.27782,2.50031 0.1852,0.52123 0.52916,0.87842 1.02658,1.07157 0.49742,0.19314 1.2991,0.3122 2.39977,0.35718 v 0.91546 c -1.42875,-0.09 -3.36285,-0.13494 -5.80496,-0.13494 -2.61937,0 -4.56935,0.045 -5.84729,0.13494 v -0.91546 c 1.10067,-0.045 1.89706,-0.16404 2.38919,-0.35718 0.49212,-0.19315 0.83079,-0.55034 1.016,-1.07157 0.18521,-0.52123 0.27781,-1.35466 0.27781,-2.50031 V 7.0023521 L 167.83204,36.535142 H 167.0965 L 155.57918,6.8700621 V 31.000062 c 0,1.17475 0.10319,2.0611 0.31221,2.65642 0.20902,0.59531 0.59796,1.02393 1.17211,1.28322 0.5715,0.2593 1.46314,0.41275 2.667,0.45773 v 0.91546 c -1.08744,-0.09 -2.64054,-0.13494 -4.66461,-0.13494 -1.81504,0 -3.23056,0.045 -4.24127,0.13494 v -0.91546 c 1.05569,-0.045 1.8415,-0.19579 2.35479,-0.45773 0.5133,-0.25929 0.86784,-0.68791 1.06098,-1.28322 0.19315,-0.59532 0.29104,-1.48167 0.29104,-2.65642 V 8.7909321 c 0,-1.14564 -0.0926,-1.97908 -0.27781,-2.50031 -0.18521,-0.52123 -0.52916,-0.87841 -1.02658,-1.07156 -0.50006,-0.19315 -1.29911,-0.31221 -2.39977,-0.35719 v -0.91546 c 0.99748,0.09 2.41035,0.13494 4.24127,0.13494 1.60602,0 2.91042,-0.045 3.90525,-0.13494 l 10.04358,26.5191899 9.82134,-26.3842499 h 2.16429 c 2.43946,0 4.37621,-0.045 5.80496,-0.13494 v 0.91546 c -1.10067,0.045 -1.90236,0.16404 -2.39978,0.35719 z"
       id="path56"
       style="stroke-width:0.264583;fill:#ffffff;filter:url(#filter2444)" />
    <path
       d="m 12.76769,43.104752 0.336021,-0.008 c 1.259417,-0.0265 1.949979,-0.0397 2.069042,-0.0397 1.616604,0 2.82575,0.40481 3.632729,1.21179 0.806979,0.80698 1.209146,1.98702 1.209146,3.53484 0,0.99483 -0.195792,1.86795 -0.584729,2.61408 -0.391584,0.74877 -0.957792,1.32556 -1.703917,1.73567 -0.746125,0.40745 -1.635125,0.61383 -2.672292,0.61383 -0.124354,0 -0.423333,-0.008 -0.894291,-0.0212 -0.470959,-0.0132 -0.812271,-0.0212 -1.026584,-0.0212 -0.74877,0 -1.317625,0.0132 -1.70127,0.0397 v -0.27516 c 0.330729,-0.0132 0.5715,-0.0476 0.719666,-0.10584 0.150813,-0.0582 0.251354,-0.16404 0.306917,-0.32014 0.05556,-0.15611 0.08467,-0.40481 0.08467,-0.74877 v -6.80244 c 0,-0.34396 -0.0291,-0.59267 -0.08467,-0.74877 -0.05556,-0.15611 -0.15875,-0.26458 -0.306917,-0.32015 -0.150812,-0.0582 -0.388937,-0.0926 -0.719666,-0.10583 v -0.27517 c 0.492125,0.0317 0.936625,0.0476 1.338791,0.0476 z m 1.12448,8.97731 c 0.05292,0.16404 0.153458,0.27781 0.298979,0.34131 0.145521,0.0635 0.362479,0.0979 0.653521,0.0979 0.973666,0 1.735666,-0.17727 2.291291,-0.52917 0.552979,-0.3519 0.941917,-0.86783 1.169459,-1.54252 0.224895,-0.67733 0.338666,-1.53988 0.338666,-2.58763 0,-1.04775 -0.121708,-1.91293 -0.367771,-2.57439 -0.246062,-0.66411 -0.645583,-1.15888 -1.201208,-1.48696 -0.555625,-0.32808 -1.30175,-0.49212 -2.241021,-0.49212 -0.28575,0 -0.500062,0.0318 -0.642937,0.0979 -0.142875,0.0635 -0.240771,0.17992 -0.293688,0.34396 -0.05292,0.16404 -0.07938,0.4101 -0.07938,0.73554 v 6.858 c 0,0.33073 0.02646,0.57679 0.07938,0.74083 z"
       id="path57"
       style="stroke-width:0.264583;fill:#ffffff;filter:url(#filter2446)" />
    <path
       d="m 27.266857,43.438122 c -0.150813,0.0582 -0.251354,0.16404 -0.306917,0.32015 -0.05556,0.1561 -0.08467,0.40746 -0.08467,0.74877 v 6.80244 c 0,0.34395 0.0291,0.59266 0.08467,0.74877 0.05556,0.1561 0.15875,0.26458 0.306917,0.32014 0.148167,0.0582 0.388937,0.0952 0.719667,0.10584 v 0.27516 c -0.420688,-0.0265 -1.000125,-0.0397 -1.740959,-0.0397 -0.785812,0 -1.370541,0.0132 -1.754187,0.0397 v -0.27516 c 0.330729,-0.0132 0.5715,-0.0476 0.719666,-0.10584 0.150813,-0.0582 0.251355,-0.16404 0.306917,-0.32014 0.05556,-0.15611 0.08467,-0.40482 0.08467,-0.74877 v -6.80244 c 0,-0.34396 -0.0291,-0.59267 -0.08467,-0.74877 -0.05556,-0.15611 -0.15875,-0.26459 -0.306917,-0.32015 -0.150812,-0.0582 -0.388937,-0.0926 -0.719666,-0.10583 v -0.27517 c 0.378354,0.0265 0.963083,0.0397 1.754187,0.0397 0.740834,0 1.320271,-0.0132 1.740959,-0.0397 v 0.27517 c -0.33073,0.0132 -0.5715,0.0503 -0.719667,0.10583 z"
       id="path58"
       style="stroke-width:0.264583;fill:#ffffff;filter:url(#filter2448)" />
    <path
       d="m 39.53294,43.096812 c 0.410104,0 0.754063,-0.0132 1.031875,-0.0397 v 0.27517 c -0.460375,0.10319 -0.820208,0.50006 -1.084792,1.19327 l -3.219979,8.31056 h -0.22225 l -3.346979,-8.62542 c -0.22225,-0.5662 -0.537104,-0.85989 -0.944562,-0.87841 v -0.27517 c 0.370416,0.0265 0.859896,0.0397 1.465791,0.0397 0.785813,0 1.370542,-0.0132 1.754188,-0.0397 v 0.27517 c -0.34925,0.0132 -0.597958,0.0556 -0.746125,0.127 -0.150813,0.0714 -0.224896,0.19844 -0.224896,0.381 0,0.15081 0.05292,0.36512 0.161396,0.64294 l 2.484437,6.58812 2.235729,-5.79173 c 0.182563,-0.4736 0.275167,-0.84667 0.275167,-1.11919 0,-0.29104 -0.0979,-0.50006 -0.293687,-0.62706 -0.195792,-0.127 -0.497417,-0.19579 -0.904875,-0.20373 v -0.27516 c 0.521229,0.0265 1.04775,0.0397 1.579562,0.0397 z"
       id="path59"
       style="stroke-width:0.264583;fill:#ffffff;filter:url(#filter2450)" />
    <path
       d="m 51.576773,52.492162 v 0.27517 c -0.375708,-0.0265 -0.865187,-0.0397 -1.473729,-0.0397 -0.780521,0 -1.36525,0.0132 -1.754187,0.0397 v -0.27517 c 0.34925,-0.0132 0.597958,-0.0556 0.746125,-0.127 0.148166,-0.0714 0.224896,-0.19843 0.224896,-0.381 0,-0.1561 -0.05292,-0.37041 -0.161396,-0.64293 l -0.844021,-2.24896 h -3.307292 l -0.563562,1.45256 c -0.182563,0.46302 -0.275167,0.83873 -0.275167,1.12448 0,0.28575 0.0979,0.49742 0.291042,0.62177 0.193146,0.12435 0.494771,0.19315 0.899583,0.20108 v 0.27517 c -0.521229,-0.0265 -1.050396,-0.0397 -1.579562,-0.0397 -0.410105,0 -0.751417,0.0132 -1.023938,0.0397 v -0.27517 c 0.455083,-0.10318 0.814917,-0.50006 1.076854,-1.19062 l 3.227917,-8.31056 h 0.22225 l 3.341687,8.62541 c 0.22225,0.56621 0.53975,0.8599 0.949854,0.87842 z m -4.894791,-7.76816 -1.574271,4.09045 h 3.106208 l -1.534583,-4.09045 z"
       id="path60"
       style="stroke-width:0.264583;fill:#ffffff;filter:url(#filter2452)" />
    <path
       d="m 56.394836,43.104752 0.336021,-0.008 c 1.259416,-0.0265 1.949979,-0.0397 2.069041,-0.0397 1.616604,0 2.82575,0.40481 3.632729,1.21179 0.80698,0.80698 1.209146,1.98702 1.209146,3.53484 0,0.99483 -0.195791,1.86795 -0.584729,2.61408 -0.391583,0.74877 -0.957792,1.32556 -1.703917,1.73567 -0.746125,0.40745 -1.635125,0.61383 -2.672291,0.61383 -0.124354,0 -0.423334,-0.008 -0.894292,-0.0212 -0.470958,-0.0132 -0.812271,-0.0212 -1.026583,-0.0212 -0.748771,0 -1.317625,0.0132 -1.701271,0.0397 v -0.27516 c 0.330729,-0.0132 0.5715,-0.0476 0.719667,-0.10584 0.150812,-0.0582 0.251354,-0.16404 0.306916,-0.32014 0.05556,-0.15611 0.08467,-0.40481 0.08467,-0.74877 v -6.80244 c 0,-0.34396 -0.0291,-0.59267 -0.08467,-0.74877 -0.05556,-0.15611 -0.15875,-0.26458 -0.306916,-0.32015 -0.150813,-0.0582 -0.388938,-0.0926 -0.719667,-0.10583 v -0.27517 c 0.492125,0.0317 0.936625,0.0476 1.338792,0.0476 z m 1.124479,8.97731 c 0.05292,0.16404 0.153458,0.27781 0.298979,0.34131 0.145521,0.0635 0.362479,0.0979 0.653521,0.0979 0.973667,0 1.735667,-0.17727 2.291292,-0.52917 0.552979,-0.3519 0.941916,-0.86783 1.169458,-1.54252 0.224896,-0.67733 0.338667,-1.53988 0.338667,-2.58763 0,-1.04775 -0.121709,-1.91293 -0.367771,-2.57439 -0.246063,-0.66411 -0.645584,-1.15888 -1.201209,-1.48696 -0.555625,-0.32808 -1.30175,-0.49212 -2.24102,-0.49212 -0.28575,0 -0.500063,0.0318 -0.642938,0.0979 -0.142875,0.0635 -0.240771,0.17992 -0.293687,0.34396 -0.05292,0.16404 -0.07937,0.4101 -0.07937,0.73554 v 6.858 c 0,0.33073 0.02646,0.57679 0.07937,0.74083 z"
       id="path61"
       style="stroke-width:0.264583;fill:#ffffff;filter:url(#filter2454)" />
    <path
       d="m 75.140565,51.013142 c 0,0.51859 0.03175,1.10331 0.0926,1.75419 -0.621771,-0.0265 -1.666875,-0.0397 -3.140604,-0.0397 -1.754188,0 -3.07975,0.0132 -3.976688,0.0397 v -0.27517 c 0.330729,-0.0132 0.5715,-0.0476 0.719667,-0.10583 0.150812,-0.0582 0.251354,-0.16404 0.306917,-0.32015 0.05556,-0.1561 0.08467,-0.40481 0.08467,-0.74877 v -6.80243 c 0,-0.34396 -0.0291,-0.59267 -0.08467,-0.74878 -0.05556,-0.1561 -0.15875,-0.26458 -0.306917,-0.32014 -0.150813,-0.0582 -0.388938,-0.0926 -0.719667,-0.10583 v -0.27517 c 0.896938,0.0265 2.2225,0.0397 3.976688,0.0397 1.344083,0 2.299229,-0.0132 2.865437,-0.0397 -0.0635,0.59796 -0.0926,1.13771 -0.0926,1.61925 0,0.35719 0.01323,0.64029 0.03969,0.84931 h -0.314855 c -0.06615,-0.59267 -0.150812,-1.03452 -0.251354,-1.32556 -0.100541,-0.29104 -0.269875,-0.50006 -0.508,-0.63236 -0.238125,-0.13229 -0.600604,-0.19843 -1.082146,-0.19843 h -1.137708 c -0.330729,0 -0.5715,0.0265 -0.719667,0.0794 -0.150812,0.0529 -0.251354,0.15611 -0.306916,0.31221 -0.05556,0.15346 -0.08467,0.40217 -0.08467,0.74613 v 3.2332 h 0.910167 c 0.460375,0 0.764646,-0.13758 0.918104,-0.41275 0.150812,-0.27516 0.246062,-0.55562 0.280458,-0.84137 0.0344,-0.28575 0.06085,-0.47096 0.07408,-0.55563 h 0.314854 c -0.03175,0.4498 -0.04762,0.88107 -0.04762,1.29117 l 0.0079,0.65617 c 0,0.46566 0.02646,1.11389 0.07937,1.94998 h -0.314854 c -0.0079,-0.0635 -0.0344,-0.28311 -0.07673,-0.66411 -0.04233,-0.37835 -0.166688,-0.66675 -0.370417,-0.85989 -0.206375,-0.19315 -0.492125,-0.29105 -0.862541,-0.29105 h -0.910167 v 3.29407 c 0,0.34396 0.0291,0.59266 0.08467,0.74612 0.05556,0.15346 0.15875,0.25665 0.306916,0.31221 0.148167,0.0529 0.388938,0.0794 0.719667,0.0794 h 1.005417 c 0.5715,0 1.005416,-0.0767 1.30175,-0.22755 0.296333,-0.15081 0.510645,-0.39423 0.642937,-0.73025 0.132292,-0.33602 0.232833,-0.8255 0.304271,-1.47373 h 0.314854 c -0.02646,0.24607 -0.03969,0.5768 -0.03969,0.99219 z"
       id="path62"
       style="stroke-width:0.264583;fill:#ffffff;filter:url(#filter2456)" />
    <path
       d="m 82.506565,43.438122 c -0.150813,0.0582 -0.251355,0.16404 -0.306917,0.32015 -0.05556,0.1561 -0.08467,0.40746 -0.08467,0.74877 v 6.80244 c 0,0.34395 0.0291,0.59266 0.08467,0.74612 0.05556,0.15346 0.15875,0.25665 0.306917,0.31221 0.148166,0.0529 0.388937,0.0794 0.719666,0.0794 h 1.005417 c 0.5715,0 1.005417,-0.0794 1.30175,-0.24077 0.296333,-0.16139 0.510646,-0.41804 0.642937,-0.76993 0.132292,-0.3519 0.232834,-0.87048 0.304271,-1.55311 h 0.314854 c -0.02646,0.28575 -0.03969,0.66146 -0.03969,1.12448 0,0.51858 0.03175,1.10331 0.0926,1.75419 -0.621771,-0.0265 -1.666875,-0.0397 -3.140604,-0.0397 -1.754188,0 -3.07975,0.0132 -3.976688,0.0397 v -0.27517 c 0.33073,-0.0132 0.5715,-0.0476 0.719667,-0.10583 0.150813,-0.0582 0.251354,-0.16404 0.306917,-0.32015 0.05556,-0.1561 0.08467,-0.40481 0.08467,-0.74877 v -6.80244 c 0,-0.34395 -0.0291,-0.59266 -0.08467,-0.74877 -0.05556,-0.1561 -0.15875,-0.26458 -0.306917,-0.32014 -0.150812,-0.0582 -0.388937,-0.0926 -0.719667,-0.10584 v -0.27516 c 0.378355,0.0265 0.963084,0.0397 1.754188,0.0397 0.740833,0 1.320271,-0.0132 1.740958,-0.0397 v 0.27516 c -0.330729,0.0132 -0.5715,0.0503 -0.719666,0.10584 z"
       id="path63"
       style="stroke-width:0.264583;fill:#ffffff;filter:url(#filter2458)" />
    <path
       d="m 98.963643,43.469872 c -0.15345,0.0794 -0.25929,0.20638 -0.3175,0.38629 -0.0582,0.17727 -0.0873,0.4445 -0.0873,0.7964 v 8.18356 h -0.31485 l -5.759978,-8.90058 v 7.239 c 0,0.35189 0.03175,0.61912 0.0926,0.79639 0.0635,0.17727 0.179917,0.30692 0.351896,0.3863 0.171979,0.0794 0.439208,0.12435 0.799042,0.13758 v 0.27517 c -0.325438,-0.0265 -0.79375,-0.0397 -1.399646,-0.0397 -0.545042,0 -0.968375,0.0132 -1.272646,0.0397 v -0.27517 c 0.3175,-0.0132 0.552979,-0.0582 0.706437,-0.13758 0.153459,-0.0767 0.259292,-0.20638 0.3175,-0.3863 0.05821,-0.17727 0.08731,-0.4445 0.08731,-0.79639 v -6.66221 c 0,-0.34396 -0.0291,-0.59267 -0.08467,-0.74877 -0.05556,-0.15611 -0.15875,-0.26458 -0.306916,-0.32015 -0.150813,-0.0582 -0.388938,-0.0926 -0.719667,-0.10583 v -0.27517 c 0.298979,0.0265 0.722312,0.0397 1.272646,0.0397 0.410104,0 0.767291,-0.0132 1.071562,-0.0397 l 4.84187,7.46125 v -5.86581 c 0,-0.3519 -0.0291,-0.61912 -0.09,-0.7964 -0.06084,-0.17727 -0.177266,-0.30691 -0.351891,-0.38629 -0.174625,-0.0767 -0.441854,-0.12435 -0.804333,-0.13758 v -0.27517 c 0.325437,0.0265 0.79375,0.0397 1.399644,0.0397 0.54504,0 0.96838,-0.0132 1.27265,-0.0397 v 0.27517 c -0.3175,0.0132 -0.55298,0.0582 -0.70644,0.13758 z"
       id="path64"
       style="stroke-width:0.264583;fill:#ffffff;filter:url(#filter2460)" />
    <path
       d="m 106.77944,43.438122 c -0.15082,0.0582 -0.25136,0.16404 -0.30692,0.32015 -0.0556,0.1561 -0.0847,0.40746 -0.0847,0.74877 v 6.80244 c 0,0.34395 0.0291,0.59266 0.0847,0.74877 0.0556,0.1561 0.15875,0.26458 0.30692,0.32014 0.14816,0.0582 0.38893,0.0952 0.71966,0.10584 v 0.27516 c -0.42069,-0.0265 -1.00012,-0.0397 -1.74096,-0.0397 -0.78581,0 -1.37054,0.0132 -1.75418,0.0397 v -0.27516 c 0.33073,-0.0132 0.5715,-0.0476 0.71966,-0.10584 0.15082,-0.0582 0.25136,-0.16404 0.30692,-0.32014 0.0556,-0.15611 0.0847,-0.40482 0.0847,-0.74877 v -6.80244 c 0,-0.34396 -0.0291,-0.59267 -0.0847,-0.74877 -0.0556,-0.15611 -0.15875,-0.26459 -0.30692,-0.32015 -0.15081,-0.0582 -0.38893,-0.0926 -0.71966,-0.10583 v -0.27517 c 0.37835,0.0265 0.96308,0.0397 1.75418,0.0397 0.74084,0 1.32027,-0.0132 1.74096,-0.0397 v 0.27517 c -0.33073,0.0132 -0.5715,0.0503 -0.71966,0.10583 z m -1.09803,-2.05052 c 0.21696,-0.18521 0.48155,-0.42069 0.7964,-0.70908 0.31485,-0.2884 0.56356,-0.48948 0.74613,-0.6059 0.13758,-0.09 0.27781,-0.13494 0.41539,-0.13494 0.17727,0 0.32015,0.0767 0.42069,0.22755 0.0503,0.0847 0.0741,0.16933 0.0741,0.254 0,0.20108 -0.11906,0.381 -0.36248,0.54239 -0.18256,0.11113 -0.43656,0.23019 -0.75935,0.35454 -0.32279,0.12436 -0.63765,0.25136 -0.94456,0.37571 -0.30692,0.12436 -0.65882,0.2884 -1.05569,0.48948 l -0.0952,-0.17992 c 0.29104,-0.22225 0.54239,-0.42862 0.75935,-0.61383 z"
       id="path65"
       style="stroke-width:0.264583;fill:#ffffff;filter:url(#filter2462)" />
    <path
       d="m 119.93452,51.828062 c 0.39158,0.57414 0.99748,0.85989 1.81504,0.85989 0.31221,0 0.60325,-0.0635 0.87313,-0.19314 0.26987,-0.12965 0.48947,-0.33073 0.65616,-0.6059 0.16669,-0.27516 0.25136,-0.61648 0.25136,-1.02923 0,-0.35189 -0.0847,-0.66939 -0.25665,-0.9472 -0.17198,-0.27782 -0.40481,-0.53446 -0.70115,-0.7673 -0.29368,-0.23283 -0.68791,-0.49477 -1.17739,-0.7911 -0.54504,-0.32544 -0.98161,-0.61913 -1.31233,-0.87842 -0.33073,-0.25929 -0.60061,-0.56885 -0.81228,-0.92868 -0.21166,-0.35984 -0.3175,-0.78317 -0.3175,-1.27 0,-0.51859 0.11642,-0.95515 0.3519,-1.31234 0.23548,-0.35719 0.54769,-0.62441 0.93663,-0.79904 0.38893,-0.17462 0.8202,-0.26458 1.28852,-0.26458 0.28045,0 0.52387,0.0238 0.7276,0.0714 0.20373,0.0476 0.37042,0.10584 0.50535,0.17463 0.13494,0.0688 0.28046,0.1561 0.44186,0.26458 0.20637,0.12965 0.36248,0.19315 0.46831,0.19315 0.0847,0 0.14817,-0.0476 0.19315,-0.14288 0.045,-0.0953 0.0794,-0.2487 0.10583,-0.45773 h 0.31485 c -0.045,0.53446 -0.0661,1.46844 -0.0661,2.7993 h -0.31486 c -0.0344,-0.46832 -0.13758,-0.90223 -0.30427,-1.29911 -0.16668,-0.39687 -0.41275,-0.71966 -0.73554,-0.96837 -0.32279,-0.24871 -0.7276,-0.37042 -1.20914,-0.37042 -0.32015,0 -0.60855,0.0661 -0.86255,0.20108 -0.254,0.13494 -0.45243,0.32015 -0.59531,0.56357 -0.14287,0.24077 -0.21431,0.51858 -0.21431,0.83079 0,0.49477 0.14817,0.89429 0.44979,1.19856 0.29898,0.30427 0.64823,0.57679 1.04775,0.82021 0.39952,0.24342 0.6694,0.40746 0.80698,0.49212 0.57679,0.36248 1.03188,0.67469 1.36525,0.94192 0.33338,0.26458 0.60325,0.57415 0.80433,0.9234 0.20109,0.34925 0.30163,0.7567 0.30163,1.22237 0,0.56356 -0.12965,1.03981 -0.38894,1.42875 -0.25929,0.39158 -0.60854,0.68527 -1.04775,0.88106 -0.43921,0.1958 -0.93133,0.29369 -1.47637,0.29369 -0.43657,0 -0.7964,-0.045 -1.07686,-0.13758 -0.28046,-0.0926 -0.54769,-0.21431 -0.79639,-0.37042 -0.20638,-0.12964 -0.36248,-0.19314 -0.46832,-0.19314 -0.0847,0 -0.15081,0.0476 -0.19314,0.14287 -0.045,0.0952 -0.0794,0.24871 -0.10584,0.45773 h -0.31485 c 0.0344,-0.50006 0.0529,-1.59544 0.0529,-3.28877 h 0.31485 c 0.0635,0.92869 0.29104,1.6801 0.68263,2.25425 z"
       id="path66"
       style="stroke-width:0.264583;fill:#ffffff;filter:url(#filter2464)" />
    <path
       d="m 136.06616,43.454002 c 0.65352,0.39158 1.16152,0.96308 1.52136,1.71185 0.35983,0.74877 0.53975,1.63777 0.53975,2.66965 0,1.03187 -0.18521,1.90235 -0.55563,2.67758 -0.37041,0.77523 -0.88635,1.37848 -1.54781,1.8071 -0.66146,0.42863 -1.41287,0.64294 -2.2569,0.64294 -0.84402,0 -1.63247,-0.19579 -2.286,-0.59002 -0.65352,-0.39158 -1.16152,-0.96308 -1.52135,-1.71185 -0.35983,-0.74877 -0.53975,-1.63777 -0.53975,-2.66965 0,-1.03187 0.18521,-1.90235 0.55563,-2.67758 0.37041,-0.77523 0.88635,-1.37848 1.54781,-1.80711 0.66146,-0.42862 1.41287,-0.64293 2.25689,-0.64293 0.84402,0 1.63248,0.19579 2.286,0.59002 z m -3.88673,0.26987 c -0.44714,0.40746 -0.7911,0.97896 -1.03187,1.70656 -0.24077,0.73025 -0.36248,1.56634 -0.36248,2.50825 0,0.94192 0.13494,1.78859 0.40217,2.5109 0.26723,0.72231 0.63235,1.28058 1.09537,1.67481 0.46302,0.39159 0.97367,0.59002 1.53723,0.59002 0.56356,0 1.09802,-0.20373 1.54252,-0.61383 0.4445,-0.40746 0.78581,-0.97896 1.02659,-1.70656 0.24077,-0.73025 0.36247,-1.56634 0.36247,-2.50825 0,-0.94192 -0.13493,-1.78859 -0.40216,-2.5109 -0.26723,-0.72231 -0.63236,-1.28058 -1.09273,-1.67481 -0.46038,-0.39158 -0.97102,-0.59002 -1.53458,-0.59002 -0.56357,0 -1.10067,0.20373 -1.54782,0.61383 z"
       id="path67"
       style="stroke-width:0.264583;fill:#ffffff;filter:url(#filter2466)" />
    <path
       d="m 150.31398,43.469872 c -0.15346,0.0794 -0.2593,0.20638 -0.31486,0.38629 -0.0556,0.17727 -0.0847,0.4445 -0.0847,0.7964 v 4.12485 c 0,0.65617 -0.0423,1.21973 -0.12965,1.69069 -0.0873,0.47096 -0.23019,0.87577 -0.43127,1.21444 -0.23283,0.39158 -0.5715,0.70379 -1.01336,0.93398 -0.4445,0.23018 -0.94191,0.34396 -1.49754,0.34396 -1.00541,0 -1.77271,-0.24871 -2.30452,-0.74348 -0.27252,-0.254 -0.48154,-0.52388 -0.62706,-0.80698 -0.14552,-0.28311 -0.24606,-0.62707 -0.30427,-1.02659 -0.0582,-0.39952 -0.0873,-0.92339 -0.0873,-1.56633 v -4.30477 c 0,-0.34396 -0.0291,-0.59267 -0.0847,-0.74877 -0.0556,-0.15611 -0.15875,-0.26458 -0.30692,-0.32015 -0.15081,-0.0582 -0.38893,-0.0926 -0.71966,-0.10583 v -0.27517 c 0.38893,0.0265 0.97366,0.0397 1.75418,0.0397 0.73555,0 1.32027,-0.0132 1.7489,-0.0397 v 0.27517 c -0.33073,0.0132 -0.5715,0.0503 -0.71967,0.10583 -0.15081,0.0582 -0.25135,0.16404 -0.30691,0.32015 -0.0556,0.1561 -0.0847,0.40746 -0.0847,0.74877 v 4.54025 c 0,0.7329 0.0503,1.33879 0.14817,1.82033 0.0979,0.48154 0.30427,0.87048 0.61912,1.16417 0.31486,0.29369 0.78052,0.44185 1.397,0.44185 0.96838,0 1.651,-0.30956 2.04258,-0.93133 0.39159,-0.62177 0.59003,-1.49225 0.59003,-2.61937 v -4.27832 c 0,-0.33866 -0.0397,-0.6006 -0.11642,-0.78316 -0.0794,-0.18257 -0.20638,-0.31486 -0.381,-0.39423 -0.17463,-0.0794 -0.42598,-0.127 -0.74613,-0.14023 v -0.27517 c 0.33073,0.0265 0.7964,0.0397 1.39965,0.0397 0.55033,0 0.97367,-0.0132 1.27265,-0.0397 v 0.27517 c -0.3175,0.0132 -0.55298,0.0582 -0.70644,0.13758 z"
       id="path68"
       style="stroke-width:0.264583;fill:#ffffff;filter:url(#filter2468)" />
    <path
       d="m 161.94506,48.504892 c 0.42862,0.4445 0.64294,0.97896 0.64294,1.60338 0,0.51858 -0.13229,0.97896 -0.39952,1.37848 -0.26459,0.40216 -0.64559,0.71437 -1.143,0.94191 -0.49477,0.2249 -1.0795,0.33867 -1.75419,0.33867 -0.18256,0 -0.50536,-0.008 -0.96308,-0.0212 -0.46038,-0.0132 -0.9234,-0.0212 -1.39171,-0.0212 -0.74877,0 -1.31763,0.0132 -1.70127,0.0397 v -0.27516 c 0.33073,-0.0132 0.5715,-0.0476 0.71966,-0.10584 0.15082,-0.0582 0.25136,-0.16404 0.30692,-0.32014 0.0556,-0.15611 0.0847,-0.40481 0.0847,-0.74877 v -6.80244 c 0,-0.34396 -0.0291,-0.59267 -0.0847,-0.74877 -0.0556,-0.15611 -0.15875,-0.26458 -0.30692,-0.32015 -0.15081,-0.0582 -0.38893,-0.0926 -0.71966,-0.10583 v -0.27517 c 0.37835,0.0265 0.93662,0.0397 1.67481,0.0397 0.35719,0 0.75142,-0.005 1.18269,-0.0132 0.43127,-0.008 0.7276,-0.0132 0.88635,-0.0132 0.62442,0 1.15358,0.09 1.5875,0.27252 0.43392,0.17992 0.75935,0.43392 0.97896,0.75671 0.2196,0.32279 0.32808,0.70115 0.32808,1.12713 0,0.52652 -0.16669,1.00012 -0.50006,1.42081 -0.33338,0.42069 -0.8599,0.74083 -1.58485,0.96308 v 0.0265 c 1.00806,0.13494 1.72772,0.42333 2.15635,0.86783 z m -1.83621,-1.50283 c 0.29898,-0.40746 0.44979,-0.94986 0.44979,-1.62719 0,-0.67733 -0.15081,-1.19856 -0.45508,-1.53723 -0.30427,-0.33602 -0.79375,-0.50535 -1.46579,-0.50535 -0.28575,0 -0.50006,0.0317 -0.64294,0.0979 -0.14287,0.0635 -0.24077,0.17992 -0.29369,0.34396 -0.0529,0.16404 -0.0794,0.41011 -0.0794,0.73554 v 3.10092 h 0.92339 c 0.74613,0 1.26736,-0.20373 1.56634,-0.60854 z m -2.41035,5.04296 c 0.0529,0.1561 0.15081,0.26458 0.29368,0.32014 0.14288,0.0556 0.36248,0.0873 0.65617,0.0873 1.70921,0 2.56381,-0.80169 2.56381,-2.40507 0,-0.71966 -0.19579,-1.26471 -0.58473,-1.64041 -0.39158,-0.37571 -1.0107,-0.56357 -1.85737,-0.56357 h -1.15094 v 3.46869 c 0,0.33073 0.0265,0.57415 0.0794,0.73025 z"
       id="path69"
       style="stroke-width:0.264583;fill:#ffffff;filter:url(#filter2470)" />
    <path
       d="m 173.84337,43.454002 c 0.65352,0.39158 1.16152,0.96308 1.52136,1.71185 0.35983,0.74877 0.53975,1.63777 0.53975,2.66965 0,1.03187 -0.18521,1.90235 -0.55563,2.67758 -0.37042,0.77523 -0.88635,1.37848 -1.54781,1.8071 -0.66146,0.42863 -1.41288,0.64294 -2.2569,0.64294 -0.84402,0 -1.63248,-0.19579 -2.286,-0.59002 -0.65352,-0.39158 -1.16152,-0.96308 -1.52135,-1.71185 -0.35983,-0.74877 -0.53975,-1.63777 -0.53975,-2.66965 0,-1.03187 0.18521,-1.90235 0.55562,-2.67758 0.37042,-0.77523 0.88636,-1.37848 1.54782,-1.80711 0.66145,-0.42862 1.41287,-0.64293 2.25689,-0.64293 0.84402,0 1.63248,0.19579 2.286,0.59002 z m -3.88673,0.26987 c -0.44714,0.40746 -0.7911,0.97896 -1.03187,1.70656 -0.24077,0.73025 -0.36248,1.56634 -0.36248,2.50825 0,0.94192 0.13494,1.78859 0.40217,2.5109 0.26722,0.72231 0.63235,1.28058 1.09537,1.67481 0.46302,0.39159 0.97367,0.59002 1.53723,0.59002 0.56356,0 1.09802,-0.20373 1.54252,-0.61383 0.4445,-0.40746 0.78581,-0.97896 1.02658,-1.70656 0.24077,-0.73025 0.36248,-1.56634 0.36248,-2.50825 0,-0.94192 -0.13493,-1.78859 -0.40216,-2.5109 -0.26723,-0.72231 -0.63236,-1.28058 -1.09273,-1.67481 -0.46038,-0.39158 -0.97102,-0.59002 -1.53459,-0.59002 -0.56356,0 -1.10066,0.20373 -1.54781,0.61383 z"
       id="path70"
       style="stroke-width:0.264583;fill:#ffffff;filter:url(#filter2472)" />
    <path
       d="m 188.2076,52.754102 c -0.20902,0.13758 -0.48683,0.20638 -0.83079,0.20638 -0.37571,0 -0.68263,-0.10848 -0.9234,-0.32809 -0.24077,-0.2196 -0.42333,-0.60589 -0.54768,-1.15887 l -0.30163,-1.36525 c -0.10583,-0.47625 -0.20902,-0.84402 -0.30427,-1.10067 -0.0952,-0.25665 -0.24077,-0.46302 -0.43656,-0.61648 -0.19315,-0.15346 -0.46302,-0.23019 -0.80698,-0.23019 h -1.30704 v 3.15384 c 0,0.34396 0.0291,0.59266 0.0847,0.74877 0.0556,0.1561 0.15875,0.26458 0.30692,0.32014 0.14817,0.0582 0.38894,0.0952 0.71967,0.10584 v 0.27516 c -0.42069,-0.0265 -1.00013,-0.0397 -1.74096,-0.0397 -0.78581,0 -1.37054,0.0132 -1.75419,0.0397 v -0.27516 c 0.33073,-0.0132 0.5715,-0.0476 0.71967,-0.10584 0.15081,-0.0582 0.25135,-0.16404 0.30691,-0.32014 0.0556,-0.15611 0.0847,-0.40481 0.0847,-0.74877 v -6.80244 c 0,-0.34396 -0.0291,-0.59267 -0.0847,-0.74877 -0.0556,-0.15611 -0.15875,-0.26458 -0.30691,-0.32015 -0.15081,-0.0582 -0.38894,-0.0926 -0.71967,-0.10583 v -0.27517 c 0.38365,0.0265 0.94192,0.0397 1.67481,0.0397 0.35719,0 0.75142,-0.005 1.18269,-0.0132 0.43127,-0.008 0.72761,-0.0132 0.88636,-0.0132 0.71437,0 1.32027,0.10319 1.81504,0.31221 0.49477,0.20638 0.86783,0.49213 1.11918,0.84931 0.24871,0.35984 0.37571,0.76729 0.37571,1.22238 0,0.35719 -0.0847,0.71702 -0.25135,1.08214 -0.16669,0.36513 -0.44979,0.69057 -0.84931,0.97896 -0.39952,0.2884 -0.92075,0.48154 -1.56369,0.57944 l 0.16669,0.0265 c 0.4101,0.0661 0.73818,0.16933 0.98425,0.30427 0.24606,0.13494 0.44185,0.32279 0.58473,0.55827 0.14552,0.23548 0.26193,0.55033 0.35189,0.94456 l 0.34131,1.39965 c 0.0582,0.28046 0.11642,0.50006 0.17727,0.65881 0.0609,0.15875 0.1323,0.27517 0.21432,0.3519 0.082,0.0767 0.18521,0.11377 0.31221,0.11377 0.15081,0 0.27781,-0.0397 0.3757,-0.11642 0.0979,-0.0767 0.22225,-0.21431 0.37571,-0.40481 l 0.20638,0.15346 c -0.21432,0.30691 -0.42598,0.53181 -0.635,0.66939 z m -3.08769,-5.16202 c 0.34925,-0.19579 0.59002,-0.46038 0.72232,-0.7911 0.13493,-0.33073 0.20108,-0.72761 0.20108,-1.19328 0,-0.74877 -0.17727,-1.31762 -0.53446,-1.70127 -0.35719,-0.38364 -0.93662,-0.57679 -1.74096,-0.57679 -0.28575,0 -0.50006,0.0318 -0.64293,0.0979 -0.14288,0.0635 -0.24078,0.17991 -0.29369,0.34396 -0.0529,0.16404 -0.0794,0.4101 -0.0794,0.73554 v 3.37608 h 0.9234 c 0.61648,0 1.09802,-0.0979 1.44727,-0.29369 z"
       id="path71"
       style="stroke-width:0.264583;fill:#ffffff;filter:url(#filter2474)" />
    <g
       id="g73"
       transform="matrix(0.26458333,0,0,0.26458333,0.54923198,-106.24196)"
       style="filter:url(#filter1210)">
      <path
         class="st1"
         d="m 383.27,412.3 c 0.08,0.12 0.72,0.13 0.97,0.52 1.78,2.8 0.85,3.77 1.2,6.68 0.1,0.86 1.55,7.32 1.77,7.65 0.31,0.46 2.63,0.86 2.77,2.68 0.09,1.09 -1.14,5.69 -1.62,6.95 -1.16,3.08 -5.04,5.86 -4.69,8.98 0.13,1.13 1.08,1.97 1.19,3.45 0.44,6.12 -3.25,5.11 -7.65,6.44 -2.81,-0.44 -3.62,-3.56 -5.91,-4.32 -0.53,-0.18 -2.02,-0.56 -1.87,0.44 0.91,-0.03 1.39,0.64 2.01,1.12 0.91,0.71 4.43,3.68 5.24,3.89 2.07,0.55 5.56,-1.3 7.45,0.24 1.42,1.16 2.25,8 6.33,7.93 0.23,0.32 0.15,2.94 0.05,3.62 -0.32,2.1 -2.33,5.17 -3.33,6.94 -1.57,2.81 0.19,4.98 0.43,7.81 -1.73,2.26 -3.44,4.65 -4.98,7.04 -0.71,1.1 -1.16,2.96 -1.77,3.79 -1.08,1.46 -3.25,1.76 -3.9,4.79 -0.79,3.72 1.34,4.72 1.62,7.27 0.26,2.31 0.22,13.14 -0.61,14.73 l -4.42,2.27 c -0.34,1.44 -3.49,3.57 -3.56,4.71 -0.01,0.27 0.61,1.09 1.44,0.29 0.62,-0.6 1.44,-2.1 2.15,-2.66 0.87,-0.69 2.29,-1.95 2.82,-2.34 0.44,-0.32 1.37,-0.09 1.86,-0.7 0.78,-0.97 1.72,-5.86 2.26,-7.45 0.28,-0.82 1.13,-1.41 1.32,-2.1 0.48,-1.73 -0.11,-7.54 -0.45,-9.58 -0.26,-1.54 -2.86,-2.53 -1.46,-4.88 1.34,-0.67 3.63,-1.69 4.58,-2.83 0.95,-1.14 1.04,-3.29 2.34,-5.07 0.96,-1.3 3.62,-3.41 4.12,-4.15 0.16,-0.24 1.43,-4.58 1.68,-5.45 1.19,-4.18 -0.57,-8.9 5.76,-6.9 0.75,1.79 0.91,3.78 1.52,5.61 0.38,1.14 1.69,2.69 1.76,3.69 0.22,3.62 -2.64,7.75 -2,12.54 0.46,3.45 3.15,5.36 3.83,7.58 0.75,2.48 0.47,5.75 0.84,8.29 0.31,2.13 2.05,4.56 2.14,5.88 0.11,1.62 -1.44,3.93 -1.68,5.71 -0.4,2.98 0.33,5.85 0.58,8.78 l 1.68,0.03 -0.02,8.54 c -3.54,0.11 -7.58,1.09 -11.09,0.56 -0.94,-0.14 -1.62,-0.79 -2.45,-0.98 -5.97,-1.36 -10.84,-1.01 -16.92,-0.1 -3.93,0.59 -7.36,2.71 -11.38,2.26 -1.51,-2.37 -1.25,-6.76 -0.21,-9.3 1.75,-4.3 4.19,-6.22 4.45,-11.52 0.08,-1.57 -0.57,-3.62 -0.47,-4.52 0.1,-0.83 1.05,-1.55 1.05,-2.93 0,-1.17 -0.71,-2.34 -1.28,-3.33 -1.9,-3.33 -3.45,-3.27 -4.35,-8.21 -0.72,-3.93 1.06,-3.33 2.97,-5.34 2.16,-2.26 1.17,-3.88 1.52,-6.47 0.26,-1.9 1.43,-3.71 1.65,-5.2 0.16,-1.09 0.61,-4.77 0.57,-5.64 -0.12,-2.95 -4.37,-6.26 -4.53,-10.37 -0.07,-1.8 1.18,-4.96 1.1,-6.74 -0.34,-7.23 -3.73,-12.11 -3.37,-20.03 0.2,-4.41 -2.8,-3.83 -3.36,-6.96 -0.17,-0.94 0.53,-2.13 0.54,-3.3 0,-1.38 -0.68,-2.61 -0.68,-3.99 0,-3.17 1.44,-3.22 -0.42,-6.95 -1.17,-2.36 -3.19,-4.06 -3.53,-7.02 0.42,-0.36 8.6,1.68 10.52,1.61 0.79,-0.03 3.77,-0.48 4.32,-0.75 1.33,-0.65 4.16,-3.75 5.55,-4.15 0.84,-0.24 4.89,-0.87 5.53,-0.67 l 0.62,0.54 c 0.15,0.27 -0.26,0.82 -0.13,1.02 z"
         id="path72"
         style="fill:#edb84f" />
      <path
         class="st1"
         d="m 411.58,420.46 c 1.72,3.73 1.28,8.11 1.74,12.19 -0.06,1.77 -1.73,2.56 -2.51,3.76 -2.06,3.14 -2.5,7.18 -3.56,10.7 -0.3,1.01 -1.16,1.79 -1.31,2.7 -0.52,3.14 2.62,5.88 2.85,8.6 0.2,2.42 -1.48,5.63 0.03,8.49 -0.93,1.82 -2.94,5.73 -3.35,7.53 -0.39,1.69 0.44,2.78 0.33,3.81 -0.13,1.17 -1.89,2.99 -2.03,4.16 -0.14,1.17 1.36,3.59 1.55,5.08 0.27,2.08 0,4.65 0.03,6.82 0.02,1.23 0.8,2.26 -0.02,3.67 -2.22,0.6 -4.26,-1.71 -4.38,-3.77 -0.23,-3.93 1.94,-7.66 2.1,-11.38 0.07,-1.6 -0.98,-4.18 -0.66,-6.11 -0.17,-2.02 -3.33,-2.59 -3.78,-4.21 -0.29,-1.03 0.07,-2.16 -0.21,-3.21 -0.32,-1.19 -2.44,-3.82 -3.04,-5.52 -0.41,-1.16 -0.39,-3.66 -0.99,-4.43 -0.6,-0.77 -3.85,-1.74 -4.38,-3.35 0.82,-1.9 2.74,-3.67 1.6,-5.85 l -2.77,-0.92 c 0.67,-1.18 2.19,-0.99 3,-1.45 1.07,-0.62 2.66,-3.52 3.4,-4.71 0.93,-1.51 1.88,-3.48 2.81,-5.16 0.39,-0.71 1.28,-1.16 1.51,-1.9 0.97,-3.06 -0.04,-6.58 0.06,-9.59 0.1,-3.24 3.35,-2.14 5.36,-2.68 1.49,-0.4 4.99,-4.41 6.63,-3.25 z"
         id="path73"
         style="fill:#edb84f" />
    </g>
  </g>
</svg>
