<?xml version="1.0" encoding="UTF-8" standalone="no"?>
<!-- Created with Inkscape (http://www.inkscape.org/) -->

<svg
   width="180mm"
   height="40mm"
   viewBox="0 0 180 40"
   version="1.1"
   id="svg1"
   inkscape:version="1.4.3 (0d15f75, 2025-12-25)"
   sodipodi:docname="web_logo_header.svg"
   xmlns:inkscape="http://www.inkscape.org/namespaces/inkscape"
   xmlns:sodipodi="http://sodipodi.sourceforge.net/DTD/sodipodi-0.dtd"
   xmlns="http://www.w3.org/2000/svg"
   xmlns:svg="http://www.w3.org/2000/svg">
  <sodipodi:namedview
     id="namedview1"
     pagecolor="#ffffff"
     bordercolor="#000000"
     borderopacity="0.25"
     inkscape:showpageshadow="2"
     inkscape:pageopacity="0.0"
     inkscape:pagecheckerboard="0"
     inkscape:deskcolor="#d1d1d1"
     inkscape:document-units="mm"
     inkscape:zoom="1.6718294"
     inkscape:cx="184.22932"
     inkscape:cy="40.97308"
     inkscape:window-width="1860"
     inkscape:window-height="1211"
     inkscape:window-x="1834"
     inkscape:window-y="189"
     inkscape:window-maximized="0"
     inkscape:current-layer="layer1" />
  <defs
     id="defs1">
    <filter
       style="color-interpolation-filters:sRGB"
       inkscape:label="Drop Shadow"
       id="filter2"
       x="-0.20596882"
       y="-0.07414473"
       width="1.4119376"
       height="1.1482895">
      <feFlood
         result="flood"
         in="SourceGraphic"
         flood-opacity="0.498039"
         flood-color="rgb(0,0,0)"
         id="feFlood1" />
      <feGaussianBlur
         result="blur"
         in="SourceGraphic"
         stdDeviation="1.000000"
         id="feGaussianBlur1" />
      <feOffset
         result="offset"
         in="blur"
         dx="0.000000"
         dy="0.000000"
         id="feOffset1" />
      <feComposite
         result="comp1"
         operator="in"
         in="flood"
         in2="offset"
         id="feComposite1" />
      <feComposite
         result="comp2"
         operator="over"
         in="SourceGraphic"
         in2="comp1"
         id="feComposite2" />
    </filter>
    <filter
       style="color-interpolation-filters:sRGB"
       inkscape:label="Drop Shadow"
       id="filter4"
       x="-0.081638612"
       y="-0.073639115"
       width="1.1632772"
       height="1.1472782">
      <feFlood
         result="flood"
         in="SourceGraphic"
         flood-opacity="0.498039"
         flood-color="rgb(0,0,0)"
         id="feFlood2" />
      <feGaussianBlur
         result="blur"
         in="SourceGraphic"
         stdDeviation="1.000000"
         id="feGaussianBlur2" />
      <feOffset
         result="offset"
         in="blur"
         dx="0.000000"
         dy="0.000000"
         id="feOffset2" />
      <feComposite
         result="comp1"
         operator="in"
         in="flood"
         in2="offset"
         id="feComposite3" />
      <feComposite
         result="comp2"
         operator="over"
         in="SourceGraphic"
         in2="comp1"
         id="feComposite4" />
    </filter>
    <filter
       style="color-interpolation-filters:sRGB"
       inkscape:label="Drop Shadow"
       id="filter6"
       x="-0.093254509"
       y="-0.074156853"
       width="1.186509"
       height="1.1483137">
      <feFlood
         result="flood"
         in="SourceGraphic"
         flood-opacity="0.498039"
         flood-color="rgb(0,0,0)"
         id="feFlood4" />
      <feGaussianBlur
         result="blur"
         in="SourceGraphic"
         stdDeviation="1.000000"
         id="feGaussianBlur4" />
      <feOffset
         result="offset"
         in="blur"
         dx="0.000000"
         dy="0.000000"
         id="feOffset4" />
      <feComposite
         result="comp1"
         operator="in"
         in="flood"
         in2="offset"
         id="feComposite5" />
      <feComposite
         result="comp2"
         operator="over"
         in="SourceGraphic"
         in2="comp1"
         id="feComposite6" />
    </filter>
    <filter
       style="color-interpolation-filters:sRGB"
       inkscape:label="Drop Shadow"
       id="filter8"
       x="-0.083617866"
       y="-0.072694876"
       width="1.1672357"
       height="1.1453898">
      <feFlood
         result="flood"
         in="SourceGraphic"
         flood-opacity="0.498039"
         flood-color="rgb(0,0,0)"
         id="feFlood6" />
      <feGaussianBlur
         result="blur"
         in="SourceGraphic"
         stdDeviation="1.000000"
         id="feGaussianBlur6" />
      <feOffset
         result="offset"
         in="blur"
         dx="0.000000"
         dy="0.000000"
         id="feOffset6" />
      <feComposite
         result="comp1"
         operator="in"
         in="flood"
         in2="offset"
         id="feComposite7" />
      <feComposite
         result="comp2"
         operator="over"
         in="SourceGraphic"
         in2="comp1"
         id="feComposite8" />
    </filter>
    <filter
       style="color-interpolation-filters:sRGB"
       inkscape:label="Drop Shadow"
       id="filter10"
       x="-0.066697551"
       y="-0.073645094"
       width="1.1333951"
       height="1.1472902">
      <feFlood
         result="flood"
         in="SourceGraphic"
         flood-opacity="0.498039"
         flood-color="rgb(0,0,0)"
         id="feFlood8" />
      <feGaussianBlur
         result="blur"
         in="SourceGraphic"
         stdDeviation="1.000000"
         id="feGaussianBlur8" />
      <feOffset
         result="offset"
         in="blur"
         dx="0.000000"
         dy="0.000000"
         id="feOffset8" />
      <feComposite
         result="comp1"
         operator="in"
         in="flood"
         in2="offset"
         id="feComposite9" />
      <feComposite
         result="comp2"
         operator="over"
         in="SourceGraphic"
         in2="comp1"
         id="feComposite10" />
    </filter>
  </defs>
  <g
     inkscape:label="Vrstva 1"
     inkscape:groupmode="layer"
     id="layer1">
    <path
       class="st2"
       d="m 28.615798,3.7972063 c 1.367896,0 2.513542,-0.04498 3.436938,-0.134938 v 0.915459 c -1.531938,0.341312 -2.738438,1.666875 -3.616855,3.974041 L 17.69909,36.253643 H 16.963548 L 5.8034231,7.5040183 c -0.743479,-1.889125 -1.793875,-2.865437 -3.148541,-2.923645 v -0.915459 c 1.235604,0.08996 2.865437,0.134938 4.889499,0.134938 2.6193749,0 4.5693549,-0.04498 5.8472919,-0.134938 v 0.915459 c -1.161521,0.04498 -1.989667,0.185208 -2.489729,0.423333 -0.500063,0.238125 -0.748771,0.661458 -0.748771,1.272646 0,0.505354 0.177271,1.219729 0.534458,2.143125 L 18.96909,30.385185 26.425048,11.075893 c 0.611188,-1.5769157 0.915458,-2.8204577 0.915458,-3.7279787 0,-0.968375 -0.328083,-1.664229 -0.981604,-2.087562 -0.656166,-0.423334 -1.658937,-0.650875 -3.013604,-0.679979 v -0.915459 c 1.740959,0.08996 3.497792,0.134938 5.267854,0.134938 z"
       id="path8"
       style="fill:#124551;stroke-width:0.264583;filter:url(#filter4)" />
    <path
       class="st2"
       d="m 46.639214,4.9349143 c -0.500062,0.193146 -0.841375,0.550334 -1.026583,1.071563 -0.185208,0.521229 -0.277812,1.354666 -0.277812,2.500312 V 31.186872 c 0,1.145646 0.0926,1.979083 0.277812,2.500313 0.185208,0.521229 0.529167,0.878416 1.026583,1.071562 0.497417,0.193146 1.299104,0.312208 2.399771,0.357188 v 0.915458 c -1.399646,-0.08996 -3.33375,-0.134938 -5.804958,-0.134938 -2.619375,0 -4.569354,0.04498 -5.847291,0.134938 v -0.915458 c 1.100666,-0.04498 1.899708,-0.164042 2.39977,-0.357188 0.497417,-0.193146 0.841375,-0.550333 1.026584,-1.071562 0.185208,-0.52123 0.277812,-1.354667 0.277812,-2.500313 V 8.5067893 c 0,-1.145646 -0.0926,-1.979083 -0.277812,-2.500312 -0.185209,-0.521229 -0.529167,-0.878417 -1.026584,-1.071563 -0.500062,-0.193146 -1.299104,-0.312208 -2.39977,-0.357187 v -0.915459 c 1.264708,0.08996 3.214687,0.134938 5.847291,0.134938 2.471208,0 4.405312,-0.04498 5.804958,-0.134938 v 0.915459 c -1.100667,0.04498 -1.902354,0.164041 -2.399771,0.357187 z"
       id="path9"
       style="fill:#124551;stroke-width:0.264583;filter:url(#filter2)" />
    <path
       class="st2"
       d="m 56.360006,9.5122063 c 0,-1.785938 -0.111125,-3.735917 -0.336021,-5.847292 2.529417,0.08996 6.831542,0.134938 12.901083,0.134938 6.069542,0 10.305521,-0.04498 12.834938,-0.134938 -0.209021,2.172229 -0.312209,4.122208 -0.312209,5.847292 0,1.5319367 0.04498,2.7834157 0.134938,3.7491457 h -1.050396 c -0.238125,-2.365375 -0.53975,-4.1195627 -0.904875,-5.2572707 -0.365125,-1.137709 -1.005417,-1.971146 -1.920875,-2.500313 -0.915458,-0.529166 -2.31775,-0.79375 -4.206875,-0.79375 h -2.4765 V 30.715914 c 0,1.264708 0.119063,2.19075 0.357188,2.778125 0.238125,0.587375 0.669395,0.992187 1.293812,1.217083 0.624417,0.224896 1.613958,0.357188 2.968625,0.402167 v 0.915458 c -1.606021,-0.08996 -3.847042,-0.134937 -6.717771,-0.134937 -3.050646,0 -5.304896,0.04498 -6.76275,0.134937 v -0.915458 c 1.354667,-0.04498 2.344209,-0.177271 2.968625,-0.402167 0.624417,-0.224896 1.055688,-0.629708 1.293813,-1.217083 0.238125,-0.587375 0.357187,-1.513417 0.357187,-2.778125 V 4.7100183 h -2.4765 c -1.889125,0 -3.291416,0.264584 -4.206875,0.79375 -0.915458,0.529167 -1.55575,1.362604 -1.920875,2.500313 -0.365125,1.137708 -0.66675,2.8918957 -0.904875,5.2572707 h -1.050395 c 0.08996,-0.968375 0.134937,-2.217209 0.134937,-3.7491457 z"
       id="path10"
       style="fill:#124551;stroke-width:0.264583;filter:url(#filter6)" />
    <path
       class="st2"
       d="m 133.66861,5.0354563 c -0.51329,0.259292 -0.86254,0.687917 -1.0504,1.283229 -0.18521,0.595312 -0.27781,1.481667 -0.27781,2.656417 V 22.725497 c 0,2.188104 -0.14552,4.066646 -0.43656,5.635625 -0.29105,1.568979 -0.76994,2.921 -1.43933,4.050771 -0.77523,1.309687 -1.90236,2.346854 -3.38138,3.114146 -1.47902,0.767291 -3.14325,1.148291 -4.99004,1.148291 -3.34698,0 -5.90815,-0.8255 -7.67821,-2.4765 -0.90752,-0.849312 -1.60337,-1.743604 -2.08756,-2.690812 -0.48419,-0.944562 -0.82285,-2.087562 -1.016,-3.426354 -0.19315,-1.338792 -0.29104,-3.07975 -0.29104,-5.222875 V 8.5041433 c 0,-1.145646 -0.0926,-1.979083 -0.27781,-2.500312 -0.18521,-0.521229 -0.52917,-0.878417 -1.02659,-1.071563 -0.49741,-0.193145 -1.2991,-0.312208 -2.39977,-0.357187 v -0.915458 c 1.29381,0.08996 3.24379,0.134937 5.84729,0.134937 2.45534,0 4.39738,-0.04498 5.82613,-0.134937 v 0.915458 c -1.10067,0.04498 -1.90236,0.164042 -2.39977,0.357187 -0.49742,0.193146 -0.84138,0.550334 -1.02659,1.071563 -0.18521,0.521229 -0.27781,1.354666 -0.27781,2.500312 V 23.63831 c 0,2.439458 0.16404,4.463521 0.49213,6.072187 0.32808,1.606021 1.016,2.902479 2.06375,3.884083 1.05039,0.981605 2.60085,1.47373 4.65402,1.47373 3.22791,0 5.49804,-1.034521 6.80773,-3.103563 1.30968,-2.069041 1.9632,-4.976812 1.9632,-8.728604 V 8.9724563 c 0,-1.129771 -0.12964,-2.00025 -0.39158,-2.611438 -0.25929,-0.611187 -0.68527,-1.050395 -1.27265,-1.317625 -0.58737,-0.267229 -1.41816,-0.423333 -2.48972,-0.468312 v -0.915458 c 1.10066,0.08996 2.65641,0.134937 4.6646,0.134937 1.83091,0 3.24379,-0.04498 4.24127,-0.134937 v 0.915458 c -1.05569,0.04498 -1.8415,0.198437 -2.35479,0.457729 z"
       id="path11"
       style="fill:#124551;stroke-width:0.264583;filter:url(#filter8)" />
    <path
       class="st2"
       d="m 176.52581,4.9349143 c -0.49741,0.193146 -0.84137,0.550334 -1.02658,1.071563 -0.18521,0.521229 -0.27781,1.354666 -0.27781,2.500312 V 31.186872 c 0,1.145646 0.0926,1.979083 0.27781,2.500313 0.18521,0.521229 0.52917,0.878416 1.02658,1.071562 0.49742,0.193146 1.29911,0.312208 2.39978,0.357188 v 0.915458 c -1.42875,-0.08996 -3.36286,-0.134938 -5.80496,-0.134938 -2.61938,0 -4.56936,0.04498 -5.84729,0.134938 v -0.915458 c 1.10066,-0.04498 1.89706,-0.164042 2.38918,-0.357188 0.49213,-0.193146 0.83079,-0.550333 1.016,-1.071562 0.18521,-0.52123 0.27782,-1.354667 0.27782,-2.500313 V 6.7208523 L 159.95232,36.253643 h -0.73555 L 147.69946,6.5885603 V 30.71856 c 0,1.17475 0.10319,2.061104 0.31221,2.656416 0.20902,0.595313 0.59796,1.023938 1.1721,1.283229 0.5715,0.259292 1.46315,0.41275 2.667,0.45773 v 0.915458 c -1.08743,-0.08996 -2.64054,-0.134938 -4.6646,-0.134938 -1.81504,0 -3.23056,0.04498 -4.24127,0.134938 v -0.915458 c 1.05569,-0.04498 1.8415,-0.195792 2.35479,-0.45773 0.51329,-0.259291 0.86783,-0.687916 1.06098,-1.283229 0.19315,-0.595312 0.29104,-1.481666 0.29104,-2.656416 V 8.5094353 c 0,-1.145646 -0.0926,-1.979083 -0.27781,-2.500312 -0.18521,-0.52123 -0.52917,-0.878417 -1.02658,-1.071563 -0.50007,-0.193146 -1.29911,-0.312208 -2.39978,-0.357187 v -0.915459 c 0.99748,0.08996 2.41036,0.134938 4.24128,0.134938 1.60602,0 2.91041,-0.04498 3.90525,-0.134938 l 10.04358,26.5191867 9.82133,-26.3842487 h 2.16429 c 2.43946,0 4.37621,-0.04498 5.80496,-0.134938 v 0.915459 c -1.10067,0.04498 -1.90235,0.164041 -2.39977,0.357187 z"
       id="path12"
       style="fill:#124551;stroke-width:0.264583;filter:url(#filter10)" />
    <g
       id="g29"
       transform="matrix(0.26458333,0,0,0.26458333,-7.3516599,-20.441273)">
      <path
         class="st1"
         d="m 383.35,86.95 c 0.08,0.12 0.72,0.13 0.97,0.52 1.78,2.8 0.85,3.77 1.2,6.68 0.1,0.86 1.55,7.32 1.77,7.65 0.31,0.46 2.63,0.86 2.77,2.68 0.09,1.09 -1.14,5.69 -1.62,6.95 -1.16,3.08 -5.04,5.86 -4.69,8.98 0.13,1.13 1.08,1.97 1.19,3.45 0.44,6.12 -3.25,5.11 -7.65,6.44 -2.81,-0.44 -3.62,-3.56 -5.91,-4.32 -0.53,-0.18 -2.02,-0.56 -1.87,0.44 0.91,-0.03 1.39,0.64 2.01,1.12 0.91,0.71 4.43,3.68 5.24,3.89 2.07,0.55 5.56,-1.3 7.45,0.24 1.42,1.16 2.25,8 6.33,7.93 0.23,0.32 0.15,2.94 0.05,3.62 -0.32,2.1 -2.33,5.17 -3.33,6.94 -1.57,2.81 0.19,4.98 0.43,7.81 -1.73,2.26 -3.44,4.65 -4.98,7.04 -0.71,1.1 -1.16,2.96 -1.77,3.79 -1.08,1.46 -3.25,1.76 -3.9,4.79 -0.79,3.72 1.34,4.72 1.62,7.27 0.26,2.31 0.22,13.14 -0.61,14.73 l -4.42,2.27 c -0.34,1.44 -3.49,3.57 -3.56,4.71 -0.01,0.27 0.61,1.09 1.44,0.29 0.62,-0.6 1.44,-2.1 2.15,-2.66 0.87,-0.69 2.29,-1.95 2.82,-2.34 0.44,-0.32 1.37,-0.09 1.86,-0.7 0.78,-0.97 1.72,-5.86 2.26,-7.45 0.28,-0.82 1.13,-1.41 1.32,-2.1 0.48,-1.73 -0.11,-7.54 -0.45,-9.58 -0.26,-1.54 -2.86,-2.53 -1.46,-4.88 1.34,-0.67 3.63,-1.69 4.58,-2.83 0.95,-1.14 1.04,-3.29 2.34,-5.07 0.96,-1.3 3.62,-3.41 4.12,-4.15 0.16,-0.24 1.43,-4.58 1.68,-5.45 1.19,-4.18 -0.57,-8.9 5.76,-6.9 0.75,1.79 0.91,3.78 1.52,5.61 0.38,1.14 1.69,2.69 1.76,3.69 0.22,3.62 -2.64,7.75 -2,12.54 0.46,3.45 3.15,5.36 3.83,7.58 0.75,2.48 0.47,5.75 0.84,8.29 0.31,2.13 2.05,4.56 2.14,5.88 0.11,1.62 -1.44,3.93 -1.68,5.71 -0.4,2.98 0.33,5.85 0.58,8.78 l 1.68,0.03 -0.02,8.54 c -3.54,0.11 -7.58,1.09 -11.09,0.56 -0.94,-0.14 -1.62,-0.79 -2.45,-0.98 -5.97,-1.36 -10.84,-1.01 -16.92,-0.1 -3.93,0.59 -7.36,2.71 -11.38,2.26 -1.51,-2.37 -1.25,-6.76 -0.21,-9.3 1.75,-4.3 4.19,-6.22 4.45,-11.52 0.08,-1.57 -0.57,-3.62 -0.47,-4.52 0.1,-0.83 1.05,-1.55 1.05,-2.93 0,-1.17 -0.71,-2.34 -1.28,-3.33 -1.9,-3.33 -3.45,-3.27 -4.35,-8.21 -0.72,-3.93 1.06,-3.33 2.97,-5.34 2.16,-2.26 1.17,-3.88 1.52,-6.47 0.26,-1.9 1.43,-3.71 1.65,-5.2 0.16,-1.09 0.61,-4.77 0.57,-5.64 -0.12,-2.95 -4.37,-6.26 -4.53,-10.37 -0.07,-1.8 1.18,-4.96 1.1,-6.74 -0.34,-7.23 -3.73,-12.11 -3.37,-20.03 0.2,-4.41 -2.8,-3.83 -3.36,-6.96 -0.17,-0.94 0.53,-2.13 0.54,-3.3 0,-1.38 -0.68,-2.61 -0.68,-3.99 0,-3.17 1.44,-3.22 -0.42,-6.95 -1.17,-2.36 -3.19,-4.06 -3.53,-7.02 0.42,-0.36 8.6,1.68 10.52,1.61 0.79,-0.03 3.77,-0.48 4.32,-0.75 1.33,-0.65 4.16,-3.75 5.55,-4.15 0.84,-0.24 4.89,-0.87 5.53,-0.67 l 0.62,0.54 c 0.15,0.27 -0.26,0.82 -0.13,1.02 z"
         id="path28"
         style="fill:#edb84f" />
      <path
         class="st1"
         d="m 411.66,95.11 c 1.72,3.73 1.28,8.11 1.74,12.19 -0.06,1.77 -1.73,2.56 -2.51,3.76 -2.06,3.14 -2.5,7.18 -3.56,10.7 -0.3,1.01 -1.16,1.79 -1.31,2.7 -0.52,3.14 2.62,5.88 2.85,8.6 0.2,2.42 -1.48,5.63 0.03,8.49 -0.93,1.82 -2.94,5.73 -3.35,7.53 -0.39,1.69 0.44,2.78 0.33,3.81 -0.13,1.17 -1.89,2.99 -2.03,4.16 -0.14,1.17 1.36,3.59 1.55,5.08 0.27,2.08 0,4.65 0.03,6.82 0.02,1.23 0.8,2.26 -0.02,3.67 -2.22,0.6 -4.26,-1.71 -4.38,-3.77 -0.23,-3.93 1.94,-7.66 2.1,-11.38 0.07,-1.6 -0.98,-4.18 -0.66,-6.11 -0.17,-2.02 -3.33,-2.59 -3.78,-4.21 -0.29,-1.03 0.07,-2.16 -0.21,-3.21 -0.32,-1.19 -2.44,-3.82 -3.04,-5.52 -0.41,-1.16 -0.39,-3.66 -0.99,-4.43 -0.6,-0.77 -3.85,-1.74 -4.38,-3.35 0.82,-1.9 2.74,-3.67 1.6,-5.85 l -2.77,-0.92 c 0.67,-1.18 2.19,-0.99 3,-1.45 1.07,-0.62 2.66,-3.52 3.4,-4.71 0.93,-1.51 1.88,-3.48 2.81,-5.16 0.39,-0.71 1.28,-1.16 1.51,-1.9 0.97,-3.06 -0.04,-6.58 0.06,-9.59 0.1,-3.24 3.35,-2.14 5.36,-2.68 1.49,-0.4 4.99,-4.41 6.63,-3.25 z"
         id="path29"
         style="fill:#edb84f" />
    </g>
  </g>
</svg>
